<svg width="22" height="22" viewBox="0 0 22 22" fill="none" xmlns="http://www.w3.org/2000/svg">
<path fill-rule="evenodd" clip-rule="evenodd" d="M11 11.9166C7.45617 11.9166 4.58333 14.7895 4.58333 18.3333V20.1666C4.58333 20.6729 4.17293 21.0833 3.66667 21.0833C3.16041 21.0833 2.75 20.6729 2.75 20.1666V18.3333C2.75 13.777 6.44365 10.0833 11 10.0833C15.5563 10.0833 19.25 13.777 19.25 18.3333V20.1666C19.25 20.6729 18.8396 21.0833 18.3333 21.0833C17.8271 21.0833 17.4167 20.6729 17.4167 20.1666V18.3333C17.4167 14.7895 14.5438 11.9166 11 11.9166Z" fill="#141416"/>
<path fill-rule="evenodd" clip-rule="evenodd" d="M11 10.0834C13.025 10.0834 14.6667 8.44173 14.6667 6.41669C14.6667 4.39164 13.025 2.75002 11 2.75002C8.97496 2.75002 7.33333 4.39164 7.33333 6.41669C7.33333 8.44173 8.97496 10.0834 11 10.0834ZM11 11.9167C14.0376 11.9167 16.5 9.45425 16.5 6.41669C16.5 3.37912 14.0376 0.916687 11 0.916687C7.96243 0.916687 5.5 3.37912 5.5 6.41669C5.5 9.45425 7.96243 11.9167 11 11.9167Z" fill="#141416"/>
</svg>
