<svg width="24" height="24" viewBox="0 0 24 24" fill="none" xmlns="http://www.w3.org/2000/svg">
<path d="M12.9816 13.8567V13.4122C12.9816 12.8708 12.5421 12.4318 12.0012 12.4318C11.4595 12.4318 11.0205 12.8708 11.0205 13.4122V13.8567C11.0205 14.3977 11.4595 14.8371 12.0012 14.8371C12.5421 14.8371 12.9816 14.3981 12.9816 13.8567Z" fill="#04A3DA"/>
<path d="M13.6543 14.3989C13.4374 15.1101 12.7826 15.6327 12.0017 15.6327C11.2204 15.6327 10.5657 15.1105 10.3483 14.3989H3.59429C3.16801 14.3989 2.76521 14.2998 2.40381 14.1278V18.6123C2.40381 19.488 3.12025 20.2044 3.9959 20.2044H20.0068C20.8824 20.2044 21.5988 19.488 21.5988 18.6123V14.1282C21.2374 14.3002 20.8346 14.3993 20.4088 14.3993L13.6543 14.3989Z" fill="#04A3DA"/>
<path d="M20.3415 6.34606H16.5196C16.2892 4.90283 15.0382 3.79553 13.5313 3.79553H10.4689C8.9616 3.79553 7.71181 4.90283 7.48055 6.34606H3.65954C2.74727 6.34606 2.00098 7.0625 2.00098 7.93815V11.6131C2.00098 12.4919 2.71384 13.2052 3.59307 13.2052H10.2719C10.2946 12.7479 10.4912 12.3351 10.8021 12.0378C10.8116 12.029 10.8228 12.0215 10.8327 12.0127C10.9016 11.9494 10.9732 11.8897 11.0516 11.838C11.0795 11.8193 11.1113 11.8065 11.1404 11.7898C11.2049 11.7528 11.2685 11.7142 11.3382 11.6855C11.3927 11.6628 11.4516 11.6497 11.5089 11.6326C11.5583 11.6179 11.6053 11.5984 11.6566 11.588C11.7681 11.5653 11.8831 11.5534 12.0005 11.5534C12.1183 11.5534 12.2329 11.5657 12.344 11.588C12.3949 11.5984 12.4423 11.6179 12.4921 11.6326C12.5494 11.6497 12.6075 11.6628 12.6628 11.6859C12.7321 11.7146 12.7954 11.7528 12.8598 11.7898C12.8889 11.8069 12.9207 11.8197 12.9494 11.8384C13.0278 11.8897 13.099 11.9494 13.1679 12.0127C13.1778 12.0219 13.1902 12.029 13.1989 12.0386C13.5102 12.3363 13.7064 12.7479 13.7291 13.206H20.4079C21.2872 13.206 22 12.4931 22 11.6139V7.93895C22 7.0625 21.2537 6.34606 20.3415 6.34606ZM9.01413 6.34606C9.21713 5.73271 9.78908 5.28573 10.4697 5.28573H13.5321C14.2123 5.28573 14.7843 5.73271 14.9873 6.34606H9.01413Z" fill="#04A3DA" fill-opacity="0.4"/>
</svg>
