<svg width="22" height="22" viewBox="0 0 22 22" fill="none" xmlns="http://www.w3.org/2000/svg">
<path d="M18.3333 1.83331H7.33333C6.8471 1.83331 6.38079 2.02647 6.03697 2.37028C5.69315 2.7141 5.5 3.18042 5.5 3.66665V14.6666C5.5 15.1529 5.69315 15.6192 6.03697 15.963C6.38079 16.3068 6.8471 16.5 7.33333 16.5H18.3333C18.8196 16.5 19.2859 16.3068 19.6297 15.963C19.9735 15.6192 20.1667 15.1529 20.1667 14.6666V3.66665C20.1667 3.18042 19.9735 2.7141 19.6297 2.37028C19.2859 2.02647 18.8196 1.83331 18.3333 1.83331ZM12.8333 4.12498C13.4411 4.12498 14.024 4.36642 14.4538 4.79619C14.8836 5.22596 15.125 5.80886 15.125 6.41665C15.125 7.02443 14.8836 7.60733 14.4538 8.0371C14.024 8.46687 13.4411 8.70831 12.8333 8.70831C12.2255 8.70831 11.6427 8.46687 11.2129 8.0371C10.7831 7.60733 10.5417 7.02443 10.5417 6.41665C10.5417 5.80886 10.7831 5.22596 11.2129 4.79619C11.6427 4.36642 12.2255 4.12498 12.8333 4.12498ZM17.4167 13.75H8.25V13.5208C8.25 11.8259 10.3162 10.0833 12.8333 10.0833C15.3505 10.0833 17.4167 11.8259 17.4167 13.5208V13.75Z" fill="#697A8D"/>
<path d="M3.66665 7.33331H1.83331V18.3333C1.83331 19.3444 2.65556 20.1666 3.66665 20.1666H14.6666V18.3333H3.66665V7.33331Z" fill="#697A8D"/>
</svg>
