<svg width="42" height="42" viewBox="0 0 42 42" fill="none" xmlns="http://www.w3.org/2000/svg">
<rect width="42" height="42" rx="4" fill="#FEEDED"/>
<path d="M29.25 27.4167V14.5833C29.25 14.0971 29.0568 13.6308 28.713 13.287C28.3692 12.9432 27.9029 12.75 27.4167 12.75H14.5833C14.0971 12.75 13.6308 12.9432 13.287 13.287C12.9432 13.6308 12.75 14.0971 12.75 14.5833V27.4167C12.75 27.9029 12.9432 28.3692 13.287 28.713C13.6308 29.0568 14.0971 29.25 14.5833 29.25H27.4167C27.9029 29.25 28.3692 29.0568 28.713 28.713C29.0568 28.3692 29.25 27.9029 29.25 27.4167ZM18.25 26.5H16.4167V21H18.25V26.5ZM21.9167 26.5H20.0833V16.4167H21.9167V26.5ZM25.5833 26.5H23.75V19.1667H25.5833V26.5Z" fill="#FF2222"/>
</svg>
