<svg width="42" height="42" viewBox="0 0 42 42" fill="none" xmlns="http://www.w3.org/2000/svg">
<rect width="42" height="42" rx="4" fill="#EDF0FE"/>
<path d="M13.6666 26.5H15.5V30.2409L20.1759 26.5H24.6666C25.6777 26.5 26.5 25.6778 26.5 24.6667V17.3333C26.5 16.3222 25.6777 15.5 24.6666 15.5H13.6666C12.6556 15.5 11.8333 16.3222 11.8333 17.3333V24.6667C11.8333 25.6778 12.6556 26.5 13.6666 26.5Z" fill="#04A3DA"/>
<path d="M28.3333 11.8333H17.3333C16.3222 11.8333 15.5 12.6556 15.5 13.6666H26.5C27.5111 13.6666 28.3333 14.4889 28.3333 15.5V22.8333C29.3444 22.8333 30.1667 22.0111 30.1667 21V13.6666C30.1667 12.6556 29.3444 11.8333 28.3333 11.8333Z" fill="#04A3DA"/>
</svg>
