<svg width="20" height="20" viewBox="0 0 20 20" fill="none" xmlns="http://www.w3.org/2000/svg">
<path fill-rule="evenodd" clip-rule="evenodd" d="M9.99376 11.9987L6.53076 8.5H8.8336V4.30357C8.8336 4.15372 8.96646 4 9.16684 4H10.8333C11.0337 4 11.1666 4.15372 11.1666 4.30357V8.5H13.4694L10.0059 11.999C10.0046 11.9995 10.0026 12 10.0001 12C9.99756 12 9.99504 11.9993 9.99376 11.9987Z" fill="#05AF07"/>
<path d="M15.125 16H4.875C4.3925 16 4 15.6075 4 15.125V14.875C4 14.3925 4.3925 14 4.875 14H15.125C15.6075 14 16 14.3925 16 14.875V15.125C16 15.6075 15.6075 16 15.125 16Z" fill="#05AF07"/>
</svg>
