<svg width="24" height="24" viewBox="0 0 24 24" fill="none" xmlns="http://www.w3.org/2000/svg">
<path d="M17.0202 21.29L13.5402 19.55C12.5702 19.07 11.4402 19.07 10.4702 19.55L6.99016 21.29C4.00016 22.78 0.850157 19.57 2.41016 16.62L3.23016 15.08C3.34016 14.87 3.52016 14.7 3.74016 14.6L16.3802 8.89999C16.9002 8.66999 17.5102 8.87999 17.7702 9.37999L21.5802 16.62C23.1402 19.57 20.0002 22.78 17.0202 21.29Z" fill="#04A3DA"/>
<path opacity="0.4" d="M15.6 7.69002L7.31996 11.42C6.38996 11.84 5.44996 10.84 5.92996 9.94002L8.96996 4.17002C10.26 1.72002 13.76 1.72002 15.05 4.17002L16.12 6.21002C16.4 6.76002 16.16 7.44002 15.6 7.69002Z" fill="#04A3DA"/>
</svg>
