<svg width="24" height="24" viewBox="0 0 24 24" fill="none" xmlns="http://www.w3.org/2000/svg">
<path d="M17.5752 11.6083C17.1002 11.4833 16.5419 11.4167 15.8752 11.4167C14.9502 11.4167 14.6086 11.6417 14.1336 12C14.1086 12.0167 14.0836 12.0417 14.0586 12.0667L13.2669 12.9083C12.6086 13.6167 11.4002 13.6167 10.7336 12.9083L9.94189 12.075C9.91689 12.0417 9.89189 12.0167 9.86689 12C9.38356 11.6417 9.04189 11.4167 8.12523 11.4167C7.45856 11.4167 6.90023 11.475 6.42523 11.6083C4.44189 12.1417 4.44189 13.7167 4.44189 15.1V15.875C4.44189 17.9667 4.44189 20.3333 8.90023 20.3333H15.1002C18.0586 20.3333 19.5586 18.8333 19.5586 15.875V15.1C19.5586 13.7167 19.5586 12.1417 17.5752 11.6083Z" fill="#04A3DA"/>
<path opacity="0.4" d="M14.325 3.66666H9.67503C5.9917 3.66666 5.9917 5.62499 5.9917 7.34999V12.175C5.9917 12.3583 6.07503 12.525 6.2167 12.6333C6.35837 12.7417 6.55003 12.7833 6.72503 12.7333C7.10003 12.6333 7.5667 12.5833 8.12503 12.5833C8.68337 12.5833 8.80003 12.65 9.13337 12.9L9.8917 13.7C10.4334 14.2833 11.2084 14.6167 12.0084 14.6167C12.8084 14.6167 13.575 14.2833 14.125 13.7L14.8834 12.9C15.2167 12.65 15.3334 12.5833 15.8917 12.5833C16.45 12.5833 16.9167 12.6333 17.2917 12.7333C17.4667 12.7833 17.65 12.7417 17.8 12.6333C17.9417 12.525 18.025 12.35 18.025 12.175V7.34999C18.0084 5.62499 18.0084 3.66666 14.325 3.66666Z" fill="#04A3DA"/>
<path d="M13.2917 10.2583H10.7083C10.3833 10.2583 10.125 10 10.125 9.67501C10.125 9.35001 10.3833 9.09167 10.7083 9.09167H13.2917C13.6167 9.09167 13.875 9.35001 13.875 9.67501C13.875 9.99167 13.6083 10.2583 13.2917 10.2583Z" fill="#04A3DA"/>
<path d="M13.9418 7.93333H10.0584C9.73343 7.93333 9.4751 7.675 9.4751 7.35C9.4751 7.025 9.73343 6.76666 10.0584 6.76666H13.9334C14.2584 6.76666 14.5168 7.025 14.5168 7.35C14.5168 7.66666 14.2584 7.93333 13.9418 7.93333Z" fill="#04A3DA"/>
</svg>
