<svg width="26" height="26" viewBox="0 0 26 26" fill="none" xmlns="http://www.w3.org/2000/svg">
<path d="M7.91975 3.91713C7.91975 3.21581 7.33817 2.65134 6.65396 2.65134H3.14738C2.44607 2.65134 1.88159 3.21581 1.88159 3.91713V13.8553C1.88159 14.5566 2.44607 15.1211 3.14738 15.1211H6.63685C7.33817 15.1211 7.90264 14.5566 7.90264 13.8553L7.91975 3.91713ZM22.7671 11.7171C23.5197 11.1184 23.6395 10.0237 23.0408 9.27108C22.8013 8.96318 22.4592 8.75792 22.0829 8.67239C22.8355 8.07371 22.9553 6.97897 22.3566 6.24345C22.1171 5.93555 21.775 5.73029 21.3816 5.62766C22.1342 5.02897 22.254 3.93424 21.6382 3.18161C21.3132 2.77108 20.8171 2.5316 20.2869 2.5316L10.4513 2.63424C9.75001 2.63424 9.18554 3.19871 9.18554 3.90003V13.8553C9.18554 15.429 14.2145 18.3198 14.4711 19.8763C14.6421 20.9027 14.4197 23.4684 15.104 23.4684C16.2842 23.4684 17.7724 23.0237 17.7724 20.4237C17.7724 18.1316 16.2671 15.1553 16.2671 15.1553H22.3566C23.3145 15.1553 24.0842 14.3856 24.0842 13.4277C24.1184 12.5895 23.554 11.8882 22.7671 11.7171Z" fill="white"/>
</svg>
