<svg width="22" height="22" viewBox="0 0 22 22" fill="none" xmlns="http://www.w3.org/2000/svg">
<path d="M12.8752 1.00024H3.2921C2.02546 1.00024 1.00049 2.02522 1.00049 3.29186V16.2082C1.00049 17.4749 2.02546 18.4998 3.2921 18.4998H9.44195L9.62528 17.4749C9.70862 17.0082 9.92528 16.5915 10.2586 16.2499L15.1668 11.35V3.29186C15.1668 2.02522 14.1418 1.00024 12.8752 1.00024ZM4.33374 4.3335H7.667C8.12532 4.3335 8.50031 4.70849 8.50031 5.16681C8.50031 5.62513 8.12532 6.00013 7.667 6.00013H4.33374C3.87542 6.00013 3.50043 5.62513 3.50043 5.16681C3.50043 4.70849 3.87542 4.3335 4.33374 4.3335ZM8.50031 12.6666H4.33374C3.87542 12.6666 3.50043 12.2916 3.50043 11.8333C3.50043 11.375 3.87542 11 4.33374 11H8.50031C8.95863 11 9.33362 11.375 9.33362 11.8333C9.33362 12.2916 8.95863 12.6666 8.50031 12.6666ZM11.8336 9.33338H4.33374C3.87542 9.33338 3.50043 8.95839 3.50043 8.50007C3.50043 8.04174 3.87542 7.66675 4.33374 7.66675H11.8336C12.2919 7.66675 12.6669 8.04174 12.6669 8.50007C12.6669 8.95839 12.2919 9.33338 11.8336 9.33338Z" fill="#697A8D"/>
<path d="M11.4401 20.9997C11.2759 20.9997 11.1159 20.9347 10.9984 20.8164C10.8543 20.6723 10.7893 20.4673 10.8251 20.2656L11.2668 17.7615C11.2884 17.6357 11.3501 17.519 11.4401 17.4282L17.6274 11.2416C18.3874 10.48 19.1341 10.6858 19.5424 11.0941L20.5732 12.125C21.1424 12.6933 21.1424 13.6183 20.5732 14.1874L14.3859 20.3748C14.2959 20.4656 14.1792 20.5264 14.0525 20.5481L11.5484 20.9897C11.5126 20.9964 11.4759 20.9997 11.4401 20.9997Z" fill="#697A8D"/>
</svg>
