<svg width="16" height="16" viewBox="0 0 16 16" fill="none" xmlns="http://www.w3.org/2000/svg">
<path d="M14.0869 6.56873C14.8599 7.38211 14.8599 8.61789 14.0869 9.43127C12.783 10.8031 10.5437 12.6667 8.00001 12.6667C5.45633 12.6667 3.21701 10.8031 1.91315 9.43127C1.14008 8.61789 1.14008 7.38211 1.91315 6.56873C3.217 5.19689 5.45633 3.33333 8.00001 3.33333C10.5437 3.33333 12.783 5.19689 14.0869 6.56873Z" stroke="#04A3DA"/>
<path d="M10 8C10 9.10457 9.10458 10 8.00001 10C6.89544 10 6.00001 9.10457 6.00001 8C6.00001 6.89543 6.89544 6 8.00001 6C9.10458 6 10 6.89543 10 8Z" stroke="#04A3DA"/>
</svg>
