<svg width="85" height="71" viewBox="0 0 85 71" fill="none" xmlns="http://www.w3.org/2000/svg">
<g clip-path="url(#clip0_9_3672)">
<path d="M0 20.174V7.69792C0 3.44605 3.42413 0 7.64896 0H24.081C25.7005 0 27.2773 0.516834 28.5858 1.47698L35.7407 6.72467H77.3518C81.5759 6.72467 85.0008 10.1707 85.0008 14.4226V20.174H0Z" fill="#FBB03B"/>
<path d="M77.351 11.8857H7.64896C3.42456 11.8857 0 15.3322 0 19.5837V63.3028C0 67.5543 3.42456 71.0008 7.64896 71.0008H77.351C81.5754 71.0008 85 67.5543 85 63.3028V19.5837C85 15.3322 81.5754 11.8857 77.351 11.8857Z" fill="#FFCC00"/>
</g>
<defs>
<clipPath id="clip0_9_3672">
<rect width="85" height="71" fill="white"/>
</clipPath>
</defs>
</svg>
