<svg width="22" height="22" viewBox="0 0 22 22" fill="none" xmlns="http://www.w3.org/2000/svg">
<path d="M10.9725 20.1666C16.0351 20.1666 20.1391 16.0626 20.1391 11C20.1391 5.93737 16.0351 1.83331 10.9725 1.83331C5.90984 1.83331 1.80579 5.93737 1.80579 11C1.80579 16.0626 5.90984 20.1666 10.9725 20.1666Z" stroke="#141416" stroke-width="1.5" stroke-linecap="round" stroke-linejoin="round"/>
<path d="M11 15.125C13.2782 15.125 15.125 13.2782 15.125 11C15.125 8.72183 13.2782 6.875 11 6.875C8.72183 6.875 6.875 8.72183 6.875 11C6.875 13.2782 8.72183 15.125 11 15.125Z" stroke="#141416" stroke-width="1.5" stroke-linecap="round" stroke-linejoin="round"/>
<path d="M4.4917 4.51917L7.7367 7.755" stroke="#141416" stroke-width="1.5" stroke-linecap="round" stroke-linejoin="round"/>
<path d="M4.4917 17.4808L7.7367 14.245" stroke="#141416" stroke-width="1.5" stroke-linecap="round" stroke-linejoin="round"/>
<path d="M17.4625 17.4808L14.2175 14.245" stroke="#141416" stroke-width="1.5" stroke-linecap="round" stroke-linejoin="round"/>
<path d="M17.4625 4.51917L14.2175 7.755" stroke="#141416" stroke-width="1.5" stroke-linecap="round" stroke-linejoin="round"/>
</svg>
