<svg width="26" height="26" viewBox="0 0 26 26" fill="none" xmlns="http://www.w3.org/2000/svg">
<path d="M7.91975 22.0829C7.91975 22.7842 7.33817 23.3487 6.65396 23.3487H3.14738C2.44607 23.3487 1.88159 22.7842 1.88159 22.0829V12.1447C1.88159 11.4434 2.44607 10.8789 3.14738 10.8789H6.63685C7.33817 10.8789 7.90264 11.4434 7.90264 12.1447L7.91975 22.0829ZM22.7671 14.2829C23.5197 14.8816 23.6395 15.9763 23.0408 16.7289C22.8013 17.0368 22.4592 17.2421 22.0829 17.3276C22.8355 17.9263 22.9553 19.021 22.3566 19.7566C22.1171 20.0644 21.775 20.2697 21.3816 20.3723C22.1342 20.971 22.254 22.0658 21.6382 22.8184C21.3132 23.2289 20.8171 23.4684 20.2869 23.4684L10.4513 23.3658C9.75001 23.3658 9.18554 22.8013 9.18554 22.1V12.1447C9.18554 10.571 14.2145 7.68024 14.4711 6.12366C14.6421 5.09734 14.4197 2.53156 15.104 2.53156C16.2842 2.53156 17.7724 2.97629 17.7724 5.57629C17.7724 7.8684 16.2671 10.8447 16.2671 10.8447H22.3566C23.3145 10.8447 24.0842 11.6144 24.0842 12.5723C24.1184 13.4105 23.554 14.1118 22.7671 14.2829Z" fill="white"/>
</svg>
