<svg width="22" height="22" viewBox="0 0 22 22" fill="none" xmlns="http://www.w3.org/2000/svg">
<path d="M8.17592 2.0625C7.39491 2.06244 6.91917 2.0624 6.5088 2.1274C4.25345 2.48461 2.48461 4.25345 2.1274 6.5088C2.0624 6.91917 2.06244 7.39491 2.0625 8.17592L2.0625 13.8241C2.06244 14.6051 2.0624 15.0808 2.1274 15.4912C2.48461 17.7466 4.25345 19.5154 6.5088 19.8726C6.91917 19.9376 7.39491 19.9376 8.17594 19.9375L9.16667 19.9375C10.3525 19.9375 11.4486 19.5451 12.3296 18.8834C12.6332 18.6553 12.6944 18.2244 12.4664 17.9208C12.2383 17.6172 11.8074 17.5559 11.5038 17.784C10.8527 18.273 10.0445 18.5625 9.16667 18.5625H8.25001C7.37215 18.5625 7.01326 18.5604 6.7239 18.5145C5.0569 18.2505 3.7495 16.9431 3.48547 15.2761C3.43964 14.9868 3.43751 14.6279 3.43751 13.75L3.43751 8.25001C3.43751 7.37215 3.43964 7.01326 3.48547 6.7239C3.7495 5.0569 5.0569 3.7495 6.7239 3.48547C7.01326 3.43964 7.37215 3.43751 8.25001 3.43751H9.16667C10.0445 3.43751 10.8527 3.72701 11.5038 4.21604C11.8074 4.44408 12.2383 4.38283 12.4664 4.07924C12.6944 3.77564 12.6332 3.34467 12.3296 3.11664C11.4486 2.4549 10.3525 2.06251 9.16667 2.06251L8.17592 2.0625Z" fill="#141416"/>
<path d="M16.0105 6.79463C15.713 6.55873 15.2805 6.60868 15.0446 6.9062C14.8087 7.20372 14.8587 7.63615 15.1562 7.87205L16.7723 9.15341C17.4176 9.66511 17.8595 10.0167 18.1596 10.3125L6.41667 10.3125C6.03698 10.3125 5.72917 10.6203 5.72917 11C5.72917 11.3797 6.03698 11.6875 6.41667 11.6875L18.1596 11.6875C17.8595 11.9833 17.4176 12.3349 16.7723 12.8466L15.1562 14.128C14.8587 14.3639 14.8087 14.7963 15.0446 15.0938C15.2805 15.3913 15.713 15.4413 16.0105 15.2054L17.6594 13.898C18.2758 13.4092 18.7845 13.0059 19.1469 12.645C19.5187 12.2745 19.827 11.8634 19.9107 11.338C19.9285 11.226 19.9375 11.1131 19.9375 11C19.9375 10.8869 19.9285 10.774 19.9107 10.6621C19.827 10.1367 19.5187 9.7255 19.1469 9.35506C18.7845 8.99408 18.2758 8.59078 17.6594 8.10203L16.0105 6.79463Z" fill="#141416"/>
</svg>
