<svg width="22" height="22" viewBox="0 0 22 22" fill="none" xmlns="http://www.w3.org/2000/svg">
<path d="M18.3058 9.16669H3.63916V16.5C3.63916 19.25 4.55583 20.1667 7.30583 20.1667H14.6392C17.3892 20.1667 18.3058 19.25 18.3058 16.5V9.16669Z" stroke="#141416" stroke-width="1.5" stroke-miterlimit="10" stroke-linecap="round" stroke-linejoin="round"/>
<path d="M19.7084 6.41665V7.33331C19.7084 8.34165 19.2225 9.16665 17.875 9.16665H4.12502C2.72252 9.16665 2.29169 8.34165 2.29169 7.33331V6.41665C2.29169 5.40831 2.72252 4.58331 4.12502 4.58331H17.875C19.2225 4.58331 19.7084 5.40831 19.7084 6.41665Z" stroke="#141416" stroke-width="1.5" stroke-miterlimit="10" stroke-linecap="round" stroke-linejoin="round"/>
<path d="M10.67 4.58334H5.61001C5.29834 4.24417 5.30751 3.72167 5.63751 3.39167L6.93917 2.09001C7.27834 1.75084 7.83751 1.75084 8.17667 2.09001L10.67 4.58334Z" stroke="#141416" stroke-width="1.5" stroke-miterlimit="10" stroke-linecap="round" stroke-linejoin="round"/>
<path d="M16.3809 4.58334H11.3209L13.8142 2.09001C14.1534 1.75084 14.7125 1.75084 15.0517 2.09001L16.3534 3.39167C16.6834 3.72167 16.6925 4.24417 16.3809 4.58334Z" stroke="#141416" stroke-width="1.5" stroke-miterlimit="10" stroke-linecap="round" stroke-linejoin="round"/>
<path d="M8.19501 9.16669V13.8784C8.19501 14.6117 9.00167 15.0425 9.61584 14.6484L10.4775 14.08C10.7892 13.8784 11.1833 13.8784 11.4858 14.08L12.3017 14.63C12.9067 15.0334 13.7225 14.6025 13.7225 13.8692V9.16669H8.19501Z" stroke="#141416" stroke-width="1.5" stroke-miterlimit="10" stroke-linecap="round" stroke-linejoin="round"/>
</svg>
