<svg width="17" height="17" viewBox="0 0 17 17" fill="none" xmlns="http://www.w3.org/2000/svg">
<g clip-path="url(#clip0_507_391)">
<path d="M9.25257 0C4.13898 0 0 4.13828 0 9.25257C0 9.52789 0.223192 9.75108 0.498513 9.75108H9.25257C9.52789 9.75108 9.75108 9.52789 9.75108 9.25257V0.498513C9.75108 0.223192 9.52789 0 9.25257 0Z" fill="#697A8D"/>
<path d="M5.70582 11.1923C5.61836 11.0326 5.45072 10.9333 5.26863 10.9333H2.32039C2.16171 10.9333 2.01246 11.0089 1.91856 11.1369C1.82463 11.2648 1.79727 11.4298 1.84479 11.5812C2.78374 14.5718 5.49199 16.7952 8.75404 17V13.2633C7.47459 13.1045 6.33535 12.3416 5.70582 11.1923Z" fill="#697A8D"/>
<path d="M11.5812 1.84488C11.4298 1.7974 11.2648 1.82479 11.1369 1.91866C11.0089 2.01259 10.9333 2.1618 10.9333 2.32051V5.26873C10.9333 5.45078 11.0327 5.61839 11.1923 5.70588C12.3416 6.33548 13.1045 7.47468 13.2633 8.7541H17C16.7947 5.48498 14.5647 2.78164 11.5812 1.84488Z" fill="#697A8D"/>
<path d="M13.2639 9.7511C13.0378 11.5822 11.5822 13.0378 9.7511 13.2639V16.9997C13.641 16.7548 16.7545 13.6463 16.9997 9.7511H13.2639Z" fill="#697A8D"/>
</g>
<defs>
<clipPath id="clip0_507_391">
<rect width="17" height="17" fill="white"/>
</clipPath>
</defs>
</svg>
