<svg width="22" height="22" viewBox="0 0 22 22" fill="none" xmlns="http://www.w3.org/2000/svg">
<path d="M1.83519 7.25042C2.29514 7.25042 2.66843 6.87796 2.66843 6.41718V5.16732C2.66843 4.70737 3.04256 4.33408 3.50167 4.33408H4.75153C5.21148 4.33408 5.58477 3.96162 5.58477 3.50084C5.58477 3.04006 5.21148 2.6676 4.75153 2.6676H3.50167C2.12349 2.6676 1.00195 3.78914 1.00195 5.16732V6.41718C1.00195 6.87796 1.37524 7.25042 1.83519 7.25042Z" fill="#267BC0"/>
<path d="M18.5001 2.6676H17.2502C16.7903 2.6676 16.417 3.04006 16.417 3.50084C16.417 3.96162 16.7903 4.33408 17.2502 4.33408H18.5001C18.9592 4.33408 19.3333 4.70737 19.3333 5.16732V6.41718C19.3333 6.87796 19.7066 7.25042 20.1666 7.25042C20.6265 7.25042 20.9998 6.87796 20.9998 6.41718V5.16732C20.9998 3.78914 19.8783 2.6676 18.5001 2.6676Z" fill="#267BC0"/>
<path d="M1.00195 16.8327C1.00195 18.2108 2.12349 19.3324 3.50167 19.3324H4.75153C5.21148 19.3324 5.58477 18.9599 5.58477 18.4991C5.58477 18.0384 5.21148 17.6659 4.75153 17.6659H3.50167C3.04256 17.6659 2.66843 17.2926 2.66843 16.8327V15.5828C2.66843 15.122 2.29514 14.7496 1.83519 14.7496C1.37524 14.7496 1.00195 15.122 1.00195 15.5828V16.8327Z" fill="#267BC0"/>
<path d="M20.1666 14.7496C19.7066 14.7496 19.3333 15.122 19.3333 15.5828V16.8327C19.3333 17.2926 18.9592 17.6659 18.5001 17.6659H17.2502C16.7903 17.6659 16.417 18.0384 16.417 18.4991C16.417 18.9599 16.7903 19.3324 17.2502 19.3324H18.5001C19.8783 19.3324 20.9998 18.2108 20.9998 16.8327V15.5828C20.9998 15.122 20.6265 14.7496 20.1666 14.7496Z" fill="#267BC0"/>
<path d="M11 16.0578C14.208 16.0578 16.941 14.0413 17.6493 11.15C17.6743 11.05 17.6743 10.95 17.6493 10.85C16.941 7.9587 14.208 5.94226 11 5.94226C7.79206 5.94226 5.05903 7.9587 4.35078 10.85C4.32578 10.95 4.32578 11.05 4.35078 11.15C5.05903 14.0413 7.79206 16.0578 11 16.0578ZM11 8.5003C12.3749 8.5003 13.4997 9.62518 13.4997 11C13.4997 12.3749 12.3749 13.4997 11 13.4997C9.62518 13.4997 8.50031 12.3749 8.50031 11C8.50031 9.62518 9.62518 8.5003 11 8.5003Z" fill="#267BC0"/>
</svg>
