<svg width="44" height="44" viewBox="0 0 44 44" fill="none" xmlns="http://www.w3.org/2000/svg">
<rect width="44" height="44" rx="22" fill="#141416"/>
<path d="M15.72 26.6733L15.7067 26.6867C15.5267 26.2933 15.4134 25.8467 15.3667 25.3533C15.4134 25.84 15.54 26.28 15.72 26.6733Z" fill="white"/>
<path d="M20 20.92C20.8763 20.92 21.5867 20.2096 21.5867 19.3333C21.5867 18.457 20.8763 17.7466 20 17.7466C19.1237 17.7466 18.4133 18.457 18.4133 19.3333C18.4133 20.2096 19.1237 20.92 20 20.92Z" fill="white"/>
<path d="M24.7934 15.3333H19.2067C16.78 15.3333 15.3334 16.78 15.3334 19.2066V24.7933C15.3334 25.52 15.46 26.1533 15.7067 26.6866C16.28 27.9533 17.5067 28.6666 19.2067 28.6666H24.7934C27.22 28.6666 28.6667 27.22 28.6667 24.7933V23.2666V19.2066C28.6667 16.78 27.22 15.3333 24.7934 15.3333ZM27.58 22.3333C27.06 21.8866 26.22 21.8866 25.7 22.3333L22.9267 24.7133C22.4067 25.16 21.5667 25.16 21.0467 24.7133L20.82 24.5266C20.3467 24.1133 19.5934 24.0733 19.06 24.4333L16.5667 26.1066C16.42 25.7333 16.3334 25.3 16.3334 24.7933V19.2066C16.3334 17.3266 17.3267 16.3333 19.2067 16.3333H24.7934C26.6734 16.3333 27.6667 17.3266 27.6667 19.2066V22.4066L27.58 22.3333Z" fill="white"/>
</svg>
