<svg width="16" height="15" viewBox="0 0 16 15" fill="none" xmlns="http://www.w3.org/2000/svg">
<path d="M15.3536 11.3536C15.5488 11.1583 15.5488 10.8417 15.3536 10.6464L12.1716 7.46447C11.9763 7.2692 11.6597 7.2692 11.4645 7.46447C11.2692 7.65973 11.2692 7.97631 11.4645 8.17157L14.2929 11L11.4645 13.8284C11.2692 14.0237 11.2692 14.3403 11.4645 14.5355C11.6597 14.7308 11.9763 14.7308 12.1716 14.5355L15.3536 11.3536ZM12 11.5H15V10.5H12V11.5ZM0.5 0C0.5 6.35127 5.64873 11.5 12 11.5V10.5C6.20101 10.5 1.5 5.79899 1.5 0H0.5Z" fill="#04A3DA"/>
</svg>
