<svg width="20" height="20" viewBox="0 0 20 20" fill="none" xmlns="http://www.w3.org/2000/svg">
<path d="M17.1785 16.3629H3.63756V2.82193C3.63756 2.37213 3.26898 2.00354 2.8223 2.00354C2.37249 2.00354 2.00391 2.37213 2.00391 2.82193V17.1812C2.00391 17.6279 2.37249 17.9965 2.8223 17.9965H17.1816C17.6314 17.9965 18 17.6279 18 17.1781C18 16.7283 17.6283 16.3629 17.1785 16.3629Z" fill="#697A8D"/>
<path d="M12.3962 9.59081C11.9808 9.74387 11.5154 9.37528 11.1718 9.19099C10.066 8.55064 8.64788 8.83177 7.87947 9.85632L5.23688 13.3485C4.96512 13.7078 5.03697 14.2232 5.39618 14.4949C5.7554 14.7667 6.2708 14.6948 6.54256 14.3356L9.18514 10.8434C9.62558 10.2187 10.3877 10.5716 10.8844 10.9246C12.062 11.6462 13.73 11.1807 14.3766 9.96252L16.0353 6.96696L16.2914 7.78535C16.4288 8.21954 16.9005 8.45693 17.3253 8.32262C17.7595 8.18518 17.9969 7.72288 17.8626 7.2887L17.0223 4.63674C16.8943 4.21192 16.4132 3.9714 15.9884 4.09947L13.3208 4.93973C12.2963 5.24272 12.8086 6.83889 13.8081 6.51091L14.5359 6.27976L12.9335 9.17224C12.821 9.37528 12.6274 9.53458 12.3962 9.59081Z" fill="#697A8D"/>
</svg>
