<svg width="24" height="25" viewBox="0 0 24 25" fill="none" xmlns="http://www.w3.org/2000/svg">
<g clip-path="url(#clip0_9_3182)">
<circle cx="12" cy="12.5" r="12" fill="#04A3DA" fill-opacity="0.18"/>
<path fill-rule="evenodd" clip-rule="evenodd" d="M10.9601 13.501H7.55519C7.43978 13.501 7.32792 13.4611 7.23859 13.388C7.02486 13.2131 6.99334 12.8981 7.1682 12.6844L13.886 4.47305C14.0146 4.31577 14.2257 4.25201 14.4199 4.31174C14.6839 4.3929 14.832 4.67267 14.7509 4.93661L13.0401 10.5H16.4459C16.5613 10.5 16.6732 10.5399 16.7625 10.6131C16.9762 10.7879 17.0077 11.1029 16.8328 11.3166L10.1143 19.5266C9.98559 19.6838 9.77453 19.7476 9.58032 19.6878C9.31638 19.6066 9.16824 19.3268 9.24942 19.0629L10.9601 13.501Z" fill="#04A3DA"/>
</g>
<defs>
<clipPath id="clip0_9_3182">
<rect width="24" height="24" fill="white" transform="translate(0 0.5)"/>
</clipPath>
</defs>
</svg>
