<svg width="41" height="42" viewBox="0 0 41 42" fill="none" xmlns="http://www.w3.org/2000/svg">
<path d="M27.5 22.586V19C27.5 15.783 25.315 13.073 22.355 12.258C22.062 11.52 21.346 11 20.5 11C19.654 11 18.938 11.52 18.645 12.258C15.685 13.074 13.5 15.783 13.5 19V22.586L11.793 24.293C11.7 24.3857 11.6262 24.4959 11.5759 24.6172C11.5256 24.7386 11.4998 24.8687 11.5 25V27C11.5 27.2652 11.6054 27.5196 11.7929 27.7071C11.9804 27.8946 12.2348 28 12.5 28H28.5C28.7652 28 29.0196 27.8946 29.2071 27.7071C29.3946 27.5196 29.5 27.2652 29.5 27V25C29.5002 24.8687 29.4744 24.7386 29.4241 24.6172C29.3738 24.4959 29.3 24.3857 29.207 24.293L27.5 22.586ZM27.5 26H13.5V25.414L15.207 23.707C15.3 23.6143 15.3738 23.5041 15.4241 23.3828C15.4744 23.2614 15.5002 23.1313 15.5 23V19C15.5 16.243 17.743 14 20.5 14C23.257 14 25.5 16.243 25.5 19V23C25.5 23.266 25.605 23.52 25.793 23.707L27.5 25.414V26ZM20.5 31C21.1193 31.0008 21.7235 30.8086 22.2285 30.4502C22.7335 30.0917 23.1143 29.5849 23.318 29H17.682C17.8857 29.5849 18.2665 30.0917 18.7715 30.4502C19.2765 30.8086 19.8807 31.0008 20.5 31Z" fill="#566A7F"/>
</svg>
