<svg width="24" height="24" viewBox="0 0 24 24" fill="none" xmlns="http://www.w3.org/2000/svg">
<path opacity="0.4" d="M11.8248 13.8417L9.09984 16.5667C8.79984 16.3 8.50817 16.025 8.22484 15.7417C7.3665 14.875 6.5915 13.9667 5.89984 13.0167C5.2165 12.0667 4.6665 11.1167 4.2665 10.175C3.8665 9.22499 3.6665 8.31666 3.6665 7.44999C3.6665 6.88332 3.7665 6.34166 3.9665 5.84166C4.1665 5.33332 4.48317 4.86666 4.92484 4.44999C5.45817 3.92499 6.0415 3.66666 6.65817 3.66666C6.8915 3.66666 7.12484 3.71666 7.33317 3.81666C7.54984 3.91666 7.7415 4.06666 7.8915 4.28332L9.82484 7.00832C9.97484 7.21666 10.0832 7.40832 10.1582 7.59166C10.2332 7.76666 10.2748 7.94166 10.2748 8.09999C10.2748 8.29999 10.2165 8.49999 10.0998 8.69166C9.9915 8.88332 9.83317 9.08332 9.63317 9.28332L8.99984 9.94166C8.90817 10.0333 8.8665 10.1417 8.8665 10.275C8.8665 10.3417 8.87484 10.4 8.8915 10.4667C8.9165 10.5333 8.9415 10.5833 8.95817 10.6333C9.10817 10.9083 9.3665 11.2667 9.73317 11.7C10.1082 12.1333 10.5082 12.575 10.9415 13.0167C11.2415 13.3083 11.5332 13.5917 11.8248 13.8417Z" fill="#04A3DA"/>
<path d="M20.3083 17.275C20.3083 17.5083 20.2667 17.75 20.1833 17.9833C20.1583 18.05 20.1333 18.1167 20.1 18.1833C19.9583 18.4833 19.775 18.7667 19.5333 19.0333C19.125 19.4833 18.675 19.8083 18.1667 20.0167C18.1583 20.0167 18.15 20.025 18.1417 20.025C17.65 20.225 17.1167 20.3333 16.5417 20.3333C15.6917 20.3333 14.7833 20.1333 13.825 19.725C12.8667 19.3167 11.9083 18.7667 10.9583 18.075C10.6333 17.8333 10.3083 17.5917 10 17.3333L12.725 14.6083C12.9583 14.7833 13.1667 14.9167 13.3417 15.0083C13.3833 15.025 13.4333 15.05 13.4917 15.075C13.5583 15.1 13.625 15.1083 13.7 15.1083C13.8417 15.1083 13.95 15.0583 14.0417 14.9667L14.675 14.3417C14.8833 14.1333 15.0833 13.975 15.275 13.875C15.4667 13.7583 15.6583 13.7 15.8667 13.7C16.025 13.7 16.1917 13.7333 16.375 13.8083C16.5583 13.8833 16.75 13.9917 16.9583 14.1333L19.7167 16.0917C19.9333 16.2417 20.0833 16.4167 20.175 16.625C20.2583 16.8333 20.3083 17.0417 20.3083 17.275Z" fill="#04A3DA"/>
</svg>
