<svg width="24" height="24" viewBox="0 0 24 24" fill="none" xmlns="http://www.w3.org/2000/svg">
<g id="chatting 1">
<g id="01">
<path id="Vector" d="M16.3568 2.97827H10.9943C7.79111 2.97827 6.73674 4.75359 6.45413 6.43261C4.77496 6.71565 3 7.77012 3 10.9726V14.3245C3 18.1903 4.7766 18.9668 7.64237 18.9668L7.95335 18.9652C7.97217 18.9693 8.01227 18.9946 8.01144 18.9836L9.01636 20.3232C9.16009 20.538 9.35452 20.7141 9.58247 20.8359C9.81042 20.9578 10.0649 21.0215 10.3233 21.0217C10.5818 21.0218 10.8363 20.9582 11.0643 20.8366C11.2924 20.715 11.487 20.5391 11.6309 20.3244L12.6702 18.9669H13.0049C16.2218 18.9669 17.2715 17.1781 17.5467 15.5123C19.226 15.2289 21 14.1742 21 10.9726V7.62071C21 4.58343 19.3945 2.97827 16.3568 2.97827ZM16.3912 14.3244C16.3925 14.5167 16.3818 14.7088 16.3593 14.8997C16.1964 16.8171 15.1301 17.7099 13.0049 17.7099H12.6702C12.4688 17.7102 12.2701 17.7573 12.0899 17.8474C11.9097 17.9375 11.7529 18.0681 11.6318 18.2291L10.6252 19.5712C10.5975 19.6276 10.5545 19.675 10.5011 19.7082C10.4477 19.7413 10.3861 19.7588 10.3233 19.7587C10.2604 19.7585 10.1989 19.7408 10.1457 19.7074C10.0924 19.6741 10.0496 19.6264 10.0221 19.57L9.01309 18.2246C8.88757 18.0694 8.73005 17.943 8.55126 17.8542C8.37246 17.7654 8.17662 17.7162 7.97708 17.7099H7.64237C5.14401 17.7099 4.25696 17.1985 4.25696 14.3245V10.9726C4.25696 8.84824 5.14976 7.78236 7.09248 7.61583C7.27502 7.59488 7.45868 7.58532 7.6424 7.58719H13.0049C15.347 7.58719 16.3912 8.63138 16.3912 10.9726L16.3912 14.3244ZM19.7431 10.9725C19.7431 12.8122 19.0729 13.858 17.6481 14.2119V10.9726C17.6481 7.93532 16.0426 6.3302 13.0049 6.3302H7.75449C8.10801 4.90507 9.15385 4.23527 10.9943 4.23527H16.3568C18.6989 4.23527 19.7431 5.27946 19.7431 7.62068V10.9725ZM11.1629 12.9853C11.1631 13.0952 11.1416 13.2042 11.0997 13.3058C11.0577 13.4075 10.9962 13.4999 10.9185 13.5777C10.8408 13.6555 10.7485 13.7173 10.647 13.7594C10.5454 13.8015 10.4365 13.8232 10.3265 13.8232H10.3232C10.1576 13.8229 9.99571 13.7735 9.85812 13.6812C9.72054 13.5889 9.6134 13.4579 9.55023 13.3048C9.48706 13.1516 9.47071 12.9832 9.50323 12.8208C9.53575 12.6583 9.61569 12.5092 9.73295 12.3921C9.85021 12.2751 9.99953 12.1955 10.162 12.1633C10.3245 12.1311 10.4929 12.1478 10.646 12.2112C10.799 12.2747 10.9298 12.3821 11.0218 12.5199C11.1138 12.6577 11.1629 12.8196 11.1629 12.9853ZM13.8421 12.9853C13.8423 13.0952 13.8208 13.2042 13.7789 13.3058C13.737 13.4075 13.6754 13.4998 13.5977 13.5777C13.52 13.6555 13.4278 13.7173 13.3262 13.7594C13.2246 13.8015 13.1158 13.8232 13.0058 13.8232H13.0017C12.8361 13.8228 12.6743 13.7732 12.5368 13.6808C12.3993 13.5884 12.2923 13.4574 12.2293 13.3042C12.1662 13.1511 12.15 12.9827 12.1826 12.8203C12.2152 12.6579 12.2952 12.5088 12.4125 12.3919C12.5298 12.2749 12.6791 12.1953 12.8416 12.1632C13.0041 12.1311 13.1724 12.1478 13.3254 12.2113C13.4784 12.2748 13.6091 12.3822 13.7011 12.52C13.793 12.6577 13.8421 12.8196 13.8421 12.9853ZM8.48446 12.9853C8.48468 13.0952 8.4632 13.2042 8.42127 13.3058C8.37933 13.4075 8.31776 13.4999 8.24008 13.5777C8.1624 13.6555 8.07013 13.7173 7.96855 13.7594C7.86698 13.8015 7.75809 13.8232 7.64812 13.8232H7.64483C7.47917 13.8229 7.31732 13.7735 7.17973 13.6812C7.04215 13.5889 6.93501 13.4579 6.87184 13.3048C6.80867 13.1516 6.79232 12.9832 6.82484 12.8208C6.85736 12.6583 6.9373 12.5092 7.05456 12.3921C7.17182 12.2751 7.32114 12.1955 7.48364 12.1633C7.64615 12.1311 7.81455 12.1478 7.96757 12.2112C8.12059 12.2747 8.25137 12.3821 8.34337 12.5199C8.43538 12.6577 8.48446 12.8196 8.48446 12.9853Z" fill="#697A8D"/>
</g>
</g>
</svg>
