<svg width="22" height="22" viewBox="0 0 22 22" fill="none" xmlns="http://www.w3.org/2000/svg">
<path fill-rule="evenodd" clip-rule="evenodd" d="M16.0417 13.75C15.6272 13.75 15.0416 13.8073 14.4319 13.8908C14.1471 13.9298 13.9299 14.147 13.8909 14.4318C13.8074 15.0415 13.7501 15.6272 13.7501 16.0417C13.7501 16.4562 13.8074 17.0418 13.8909 17.6515C13.9299 17.9363 14.1471 18.1535 14.4319 18.1925C15.0416 18.276 15.6272 18.3333 16.0417 18.3333C16.4562 18.3333 17.0419 18.276 17.6516 18.1925C17.9364 18.1535 18.1536 17.9363 18.1926 17.6515C18.2761 17.0418 18.3334 16.4562 18.3334 16.0417C18.3334 15.6272 18.2761 15.0415 18.1926 14.4318C18.1536 14.147 17.9364 13.9298 17.6516 13.8908C17.0419 13.8073 16.4562 13.75 16.0417 13.75ZM14.1831 12.0744C13.0832 12.2251 12.2251 13.0832 12.0745 14.1831C11.9881 14.8139 11.9167 15.4992 11.9167 16.0417C11.9167 16.5842 11.9881 17.2694 12.0745 17.9003C12.2251 19.0002 13.0832 19.8583 14.1831 20.0089C14.814 20.0953 15.4992 20.1667 16.0417 20.1667C16.5843 20.1667 17.2695 20.0953 17.9003 20.0089C19.0003 19.8583 19.8584 19.0002 20.009 17.9003C20.0954 17.2694 20.1667 16.5842 20.1667 16.0417C20.1667 15.4992 20.0954 14.8139 20.009 14.1831C19.8584 13.0832 19.0003 12.2251 17.9003 12.0744C17.2695 11.988 16.5843 11.9167 16.0417 11.9167C15.4992 11.9167 14.814 11.988 14.1831 12.0744Z" fill="#141416"/>
<path fill-rule="evenodd" clip-rule="evenodd" d="M5.95825 13.75C5.54375 13.75 4.9581 13.8073 4.34841 13.8908C4.06358 13.9298 3.84639 14.147 3.80738 14.4318C3.72388 15.0415 3.66659 15.6272 3.66659 16.0417C3.66659 16.4562 3.72388 17.0418 3.80738 17.6515C3.84639 17.9363 4.06358 18.1535 4.34841 18.1925C4.9581 18.276 5.54375 18.3333 5.95825 18.3333C6.37275 18.3333 6.9584 18.276 7.56809 18.1925C7.85293 18.1535 8.07011 17.9363 8.10912 17.6515C8.19262 17.0418 8.24992 16.4562 8.24992 16.0417C8.24992 15.6272 8.19262 15.0415 8.10912 14.4318C8.07011 14.147 7.85293 13.9298 7.56809 13.8908C6.9584 13.8073 6.37275 13.75 5.95825 13.75ZM4.09965 12.0744C2.99974 12.2251 2.14164 13.0832 1.991 14.1831C1.9046 14.8139 1.83325 15.4992 1.83325 16.0417C1.83325 16.5842 1.9046 17.2694 1.991 17.9003C2.14164 19.0002 2.99974 19.8583 4.09965 20.0089C4.73051 20.0953 5.41573 20.1667 5.95825 20.1667C6.50077 20.1667 7.18599 20.0953 7.81685 20.0089C8.91676 19.8583 9.77486 19.0002 9.9255 17.9003C10.0119 17.2694 10.0833 16.5842 10.0833 16.0417C10.0833 15.4992 10.0119 14.8139 9.9255 14.1831C9.77486 13.0832 8.91676 12.2251 7.81685 12.0744C7.18599 11.988 6.50077 11.9167 5.95825 11.9167C5.41573 11.9167 4.73051 11.988 4.09965 12.0744Z" fill="#141416"/>
<path fill-rule="evenodd" clip-rule="evenodd" d="M16.0417 3.66666C15.6272 3.66666 15.0416 3.72396 14.4319 3.80746C14.1471 3.84647 13.9299 4.06365 13.8909 4.34849C13.8074 4.95818 13.7501 5.54383 13.7501 5.95833C13.7501 6.37283 13.8074 6.95848 13.8909 7.56817C13.9299 7.853 14.1471 8.07019 14.4319 8.1092C15.0416 8.1927 15.6272 8.25 16.0417 8.25C16.4562 8.25 17.0419 8.1927 17.6516 8.1092C17.9364 8.07019 18.1536 7.853 18.1926 7.56817C18.2761 6.95848 18.3334 6.37283 18.3334 5.95833C18.3334 5.54383 18.2761 4.95818 18.1926 4.34849C18.1536 4.06365 17.9364 3.84647 17.6516 3.80746C17.0419 3.72396 16.4562 3.66666 16.0417 3.66666ZM14.1831 1.99108C13.0832 2.14172 12.2251 2.99982 12.0745 4.09973C11.9881 4.73059 11.9167 5.41581 11.9167 5.95833C11.9167 6.50085 11.9881 7.18607 12.0745 7.81693C12.2251 8.91684 13.0832 9.77494 14.1831 9.92558C14.814 10.012 15.4992 10.0833 16.0417 10.0833C16.5843 10.0833 17.2695 10.012 17.9003 9.92558C19.0003 9.77494 19.8584 8.91684 20.009 7.81693C20.0954 7.18607 20.1667 6.50085 20.1667 5.95833C20.1667 5.41581 20.0954 4.73059 20.009 4.09973C19.8584 2.99982 19.0003 2.14172 17.9003 1.99108C17.2695 1.90468 16.5843 1.83333 16.0417 1.83333C15.4992 1.83333 14.814 1.90468 14.1831 1.99108Z" fill="#141416"/>
<path fill-rule="evenodd" clip-rule="evenodd" d="M5.95825 3.66666C5.54375 3.66666 4.9581 3.72396 4.34841 3.80746C4.06358 3.84647 3.84639 4.06365 3.80738 4.34849C3.72388 4.95818 3.66659 5.54383 3.66659 5.95833C3.66659 6.37283 3.72388 6.95848 3.80738 7.56817C3.84639 7.853 4.06358 8.07019 4.34841 8.1092C4.9581 8.1927 5.54375 8.25 5.95825 8.25C6.37275 8.25 6.9584 8.1927 7.56809 8.1092C7.85293 8.07019 8.07011 7.853 8.10912 7.56817C8.19262 6.95848 8.24992 6.37283 8.24992 5.95833C8.24992 5.54383 8.19262 4.95818 8.10912 4.34849C8.07011 4.06365 7.85293 3.84647 7.56809 3.80746C6.9584 3.72396 6.37275 3.66666 5.95825 3.66666ZM4.09965 1.99108C2.99974 2.14172 2.14164 2.99982 1.991 4.09973C1.9046 4.73059 1.83325 5.41581 1.83325 5.95833C1.83325 6.50085 1.9046 7.18607 1.991 7.81693C2.14164 8.91684 2.99974 9.77494 4.09965 9.92558C4.73051 10.012 5.41573 10.0833 5.95825 10.0833C6.50077 10.0833 7.18599 10.012 7.81685 9.92558C8.91676 9.77494 9.77486 8.91684 9.9255 7.81693C10.0119 7.18607 10.0833 6.50085 10.0833 5.95833C10.0833 5.41581 10.0119 4.73059 9.9255 4.09973C9.77486 2.99982 8.91676 2.14172 7.81685 1.99108C7.18599 1.90468 6.50077 1.83333 5.95825 1.83333C5.41573 1.83333 4.73051 1.90468 4.09965 1.99108Z" fill="#141416"/>
</svg>
