<svg width="42" height="42" viewBox="0 0 42 42" fill="none" xmlns="http://www.w3.org/2000/svg">
<rect width="42" height="42" rx="4" fill="#EDFEEF"/>
<path d="M13.6667 17.3333H11.8333V28.3333C11.8333 28.8195 12.0265 29.2859 12.3703 29.6297C12.7141 29.9735 13.1804 30.1666 13.6667 30.1666H24.6667V28.3333H13.6667V17.3333Z" fill="#05AF07"/>
<path d="M28.3333 11.8333H17.3333C16.8471 11.8333 16.3808 12.0265 16.037 12.3703C15.6932 12.7141 15.5 13.1804 15.5 13.6666V24.6666C15.5 25.1529 15.6932 25.6192 16.037 25.963C16.3808 26.3068 16.8471 26.5 17.3333 26.5H28.3333C28.8196 26.5 29.2859 26.3068 29.6297 25.963C29.9735 25.6192 30.1667 25.1529 30.1667 24.6666V13.6666C30.1667 13.1804 29.9735 12.7141 29.6297 12.3703C29.2859 12.0265 28.8196 11.8333 28.3333 11.8333ZM20.0833 22.8333V15.5L26.5 19.1666L20.0833 22.8333Z" fill="#05AF07"/>
</svg>
