<svg width="22" height="22" viewBox="0 0 22 22" fill="none" xmlns="http://www.w3.org/2000/svg">
<path d="M14.4921 9.69049V6.27061M7.50801 9.69049V6.27061M7.50801 6.27061V5.32541C7.50801 3.39679 9.07146 1.83334 11.0001 1.83334C12.9287 1.83334 14.4921 3.39679 14.4921 5.32541V6.27061M7.50801 6.27061C8.19483 6.19842 9.07004 6.19842 10.2911 6.19842H11.709C12.9301 6.19842 13.8053 6.19842 14.4921 6.27061M7.50801 6.27061C6.98241 6.32585 6.56714 6.42336 6.19164 6.5955C5.42837 6.9454 4.78221 7.50802 4.33064 8.2159C3.81818 9.01921 3.66991 10.0867 3.37338 12.2218C2.99259 14.9634 2.8022 16.3342 3.22084 17.3989C3.58835 18.3336 4.26694 19.1129 5.14217 19.6056C6.13913 20.1667 7.52312 20.1667 10.2911 20.1667H11.709C14.477 20.1667 15.861 20.1667 16.858 19.6056C17.7332 19.1129 18.4118 18.3336 18.7793 17.3989C19.198 16.3342 19.0076 14.9634 18.6268 12.2218C18.3302 10.0867 18.182 9.01921 17.6695 8.2159C17.2179 7.50802 16.5718 6.9454 15.8085 6.5955C15.433 6.42336 15.0177 6.32585 14.4921 6.27061" stroke="#141416" stroke-width="1.5" stroke-linecap="round"/>
</svg>
