<svg width="22" height="22" viewBox="0 0 22 22" fill="none" xmlns="http://www.w3.org/2000/svg">
<path d="M9.49994 2H2.74993C2.33772 2 2 2.33772 2 2.74993V11C2 11.4124 2.33772 11.7499 2.74993 11.7499H9.49994C9.91236 11.7499 10.2501 11.4124 10.2501 11V2.74993C10.2501 2.33772 9.91236 2 9.49994 2Z" fill="#697A8D"/>
<path d="M19.2501 10.2501H12.5001C12.0877 10.2501 11.7499 10.5876 11.7499 11V19.2501C11.7499 19.6623 12.0877 20 12.5001 20H19.2501C19.6623 20 20 19.6623 20 19.2501V11C20 10.5876 19.6623 10.2501 19.2501 10.2501Z" fill="#697A8D"/>
<path d="M9.49994 13.25H2.74993C2.33772 13.25 2 13.5877 2 13.9999V19.2501C2 19.6623 2.33772 20 2.74993 20H9.49994C9.91236 20 10.2501 19.6623 10.2501 19.2501V13.9999C10.2501 13.5877 9.91236 13.25 9.49994 13.25Z" fill="#697A8D"/>
<path d="M19.2501 2H12.5001C12.0877 2 11.7499 2.33772 11.7499 2.74993V8.00008C11.7499 8.41229 12.0877 8.75001 12.5001 8.75001H19.2501C19.6623 8.75001 20 8.41229 20 8.00008V2.74993C20 2.33772 19.6623 2 19.2501 2Z" fill="#697A8D"/>
</svg>
