<svg viewBox="0 0 56 42" fill="none" xmlns="http://www.w3.org/2000/svg"><path fill-rule="evenodd" clip-rule="evenodd" d="M19.2258 10.3643C19.2258 10.3643 19.1224 2.09098 19.2258 1.25911C19.3291 0.427235 20.501 0.101562 20.501 0.101562H38.8414C38.8414 0.101562 53.0676 1.2926 54.1474 12.5333C55.2271 23.774 46.1131 27.1101 46.1131 27.1101L55.8305 37.9895C55.8305 37.9895 56.4917 40.5863 54.5762 41.29H45.2883L34.0795 28.7485H29.9094V40.1396C29.9094 40.1396 29.4833 41.29 28.6376 41.29C23.6783 41.29 20.9661 41.29 20.501 41.29C19.7459 41.29 19.2258 40.2276 19.2258 40.2276V18.7662H39.7375C39.7375 18.7662 43.4839 17.8261 43.4839 14.5577C43.4839 11.2894 39.7375 10.3643 39.7375 10.3643H19.2258Z" fill="#E9EEF1"></path><path fill-rule="evenodd" clip-rule="evenodd" d="M11.5662 26.0909C11.5662 26.0909 11.571 28.7101 14.7705 28.7101C17.9699 28.7101 17.9699 26.0909 17.9699 26.0909L17.962 17.7154H26.3741C26.3741 17.7154 30.029 17.9485 30.029 14.498C30.029 11.0475 26.3741 11.2945 26.3741 11.2945H17.9699V3.06236C17.9699 3.06236 17.962 0 14.7625 0C11.563 0 11.5423 3.06236 11.5423 3.06236V11.3453H2.71187C2.71187 11.3453 0 11.6046 0 14.498C0 17.3914 2.71187 17.7383 2.71187 17.7383H11.5582L11.5662 26.0909Z" fill="#00A3DA"></path></svg>