<svg width="26" height="20" viewBox="0 0 26 20" fill="none" xmlns="http://www.w3.org/2000/svg">
<path fill-rule="evenodd" clip-rule="evenodd" d="M8.92384 4.88269C8.92384 4.88269 8.87561 0.970681 8.92384 0.577322C8.97206 0.183963 9.51546 0.0304565 9.51546 0.0304565H18.0299C18.0299 0.0304565 24.6343 0.594112 25.1353 5.90926C25.6364 11.2256 21.4056 12.8026 21.4056 12.8026L25.9163 17.9475C25.9163 17.9475 26.2233 19.1755 25.3341 19.5077H21.0222L15.8187 13.5762H13.8827V18.9633C13.8827 18.9633 13.6851 19.5077 13.2922 19.5077H9.51546C9.16496 19.5077 8.92384 19.0052 8.92384 19.0052V8.85585H18.4463C18.4463 8.85585 20.1859 8.41093 20.1859 6.86507C20.1859 5.31922 18.4463 4.88149 18.4463 4.88149H8.92384V4.88269Z" fill="#2E3138"/>
<path fill-rule="evenodd" clip-rule="evenodd" d="M5.36463 12.311C5.36463 12.311 5.36698 13.5474 6.85016 13.5474C8.33335 13.5474 8.33452 12.311 8.33452 12.311L8.33099 8.35701H12.2324C12.2324 8.35701 13.9273 8.46735 13.9273 6.83874C13.9273 5.21014 12.2324 5.32647 12.2324 5.32647H8.33452V1.44084C8.33452 1.44084 8.33099 -0.00427246 6.84664 -0.00427246C5.36228 -0.00427246 5.35287 1.44084 5.35287 1.44084V5.35045H1.25735C1.25735 5.35045 0 5.47278 0 6.83874C0 8.20471 1.25735 8.36781 1.25735 8.36781H5.35992L5.36345 12.311H5.36463Z" fill="#00A3DA"/>
<path fill-rule="evenodd" clip-rule="evenodd" d="M5.36463 12.311C5.36463 12.311 5.36698 13.5474 6.85016 13.5474C8.33335 13.5474 8.33452 12.311 8.33452 12.311L8.33099 8.35701H12.2324C12.2324 8.35701 13.9273 8.46735 13.9273 6.83874C13.9273 5.21014 12.2324 5.32647 12.2324 5.32647H8.33452V1.44084C8.33452 1.44084 8.33099 -0.00427246 6.84664 -0.00427246C5.36228 -0.00427246 5.35287 1.44084 5.35287 1.44084V5.35045H1.25735C1.25735 5.35045 0 5.47278 0 6.83874C0 8.20471 1.25735 8.36781 1.25735 8.36781H5.35992L5.36345 12.311H5.36463Z" fill="black" fill-opacity="0.2"/>
</svg>
