<svg width="22" height="22" viewBox="0 0 22 22" fill="none" xmlns="http://www.w3.org/2000/svg">
<path d="M18.3058 9.16666H3.63916V16.5C3.63916 19.25 4.55583 20.1667 7.30583 20.1667H14.6392C17.3892 20.1667 18.3058 19.25 18.3058 16.5V9.16666Z" stroke="#141416" stroke-width="1.5" stroke-miterlimit="10" stroke-linecap="round" stroke-linejoin="round"/>
<path d="M19.7083 6.41668V7.33334C19.7083 8.34168 19.2225 9.16668 17.875 9.16668H4.12496C2.72246 9.16668 2.29163 8.34168 2.29163 7.33334V6.41668C2.29163 5.40834 2.72246 4.58334 4.12496 4.58334H17.875C19.2225 4.58334 19.7083 5.40834 19.7083 6.41668Z" stroke="#141416" stroke-width="1.5" stroke-miterlimit="10" stroke-linecap="round" stroke-linejoin="round"/>
<path d="M10.67 4.58334H5.61001C5.29834 4.24417 5.30751 3.72167 5.63751 3.39167L6.93917 2.09001C7.27834 1.75084 7.83751 1.75084 8.17667 2.09001L10.67 4.58334Z" stroke="#141416" stroke-width="1.5" stroke-miterlimit="10" stroke-linecap="round" stroke-linejoin="round"/>
<path d="M16.3808 4.58334H11.3208L13.8141 2.09001C14.1533 1.75084 14.7125 1.75084 15.0516 2.09001L16.3533 3.39167C16.6833 3.72167 16.6925 4.24417 16.3808 4.58334Z" stroke="#141416" stroke-width="1.5" stroke-miterlimit="10" stroke-linecap="round" stroke-linejoin="round"/>
<path d="M8.19495 9.16666V13.8783C8.19495 14.6117 9.00161 15.0425 9.61578 14.6483L10.4774 14.08C10.7891 13.8783 11.1833 13.8783 11.4858 14.08L12.3016 14.63C12.9066 15.0333 13.7224 14.6025 13.7224 13.8692V9.16666H8.19495Z" stroke="#141416" stroke-width="1.5" stroke-miterlimit="10" stroke-linecap="round" stroke-linejoin="round"/>
</svg>
