<svg width="22" height="22" viewBox="0 0 22 22" fill="none" xmlns="http://www.w3.org/2000/svg">
<path d="M14.4921 9.69046V6.27057M7.50795 9.69046V6.27057M7.50795 6.27057V5.32538C7.50795 3.39676 9.0714 1.83331 11 1.83331C12.9286 1.83331 14.4921 3.39676 14.4921 5.32538V6.27057M7.50795 6.27057C8.19476 6.19839 9.06997 6.19839 10.291 6.19839H11.709C12.9301 6.19839 13.8053 6.19839 14.4921 6.27057M7.50795 6.27057C6.98235 6.32581 6.56708 6.42333 6.19158 6.59547C5.42831 6.94537 4.78215 7.50799 4.33057 8.21587C3.81812 9.01918 3.66985 10.0867 3.37332 12.2217C2.99253 14.9634 2.80214 16.3342 3.22077 17.3989C3.58829 18.3336 4.26688 19.1129 5.14211 19.6055C6.13907 20.1666 7.52306 20.1666 10.291 20.1666H11.709C14.477 20.1666 15.861 20.1666 16.8579 19.6055C17.7331 19.1129 18.4117 18.3336 18.7793 17.3989C19.1979 16.3342 19.0075 14.9634 18.6267 12.2217C18.3302 10.0867 18.1819 9.01918 17.6695 8.21587C17.2179 7.50799 16.5717 6.94537 15.8084 6.59547C15.4329 6.42333 15.0177 6.32581 14.4921 6.27057" stroke="#141416" stroke-width="1.5" stroke-linecap="round"/>
</svg>
