<svg width="20" height="20" viewBox="0 0 20 20" fill="none" xmlns="http://www.w3.org/2000/svg">
<path d="M14.7134 14.7134C17.32 12.1067 17.32 7.88668 14.7134 5.28668" stroke="#04A3DA" stroke-width="1.25" stroke-linecap="round" stroke-linejoin="round"/>
<path d="M5.28654 5.28668C2.67988 7.89335 2.67988 12.1134 5.28654 14.7134" stroke="#04A3DA" stroke-width="1.25" stroke-linecap="round" stroke-linejoin="round"/>
<path d="M7.7998 16.2733C8.51314 16.52 9.25313 16.64 9.9998 16.64C10.7465 16.6333 11.4865 16.52 12.1998 16.2733" stroke="#04A3DA" stroke-width="1.25" stroke-linecap="round" stroke-linejoin="round"/>
<path d="M7.7998 3.72668C8.51314 3.48002 9.25313 3.35999 9.9998 3.35999C10.7465 3.35999 11.4865 3.48002 12.1998 3.72668" stroke="#04A3DA" stroke-width="1.25" stroke-linecap="round" stroke-linejoin="round"/>
<path d="M7.82666 10.0001V8.88673C7.82666 7.50006 8.80667 6.93339 10.0067 7.62672L10.9733 8.18674L11.94 8.74671C13.14 9.44005 13.14 10.5734 11.94 11.2667L10.9733 11.8267L10.0067 12.3867C8.80667 13.0801 7.82666 12.5134 7.82666 11.1267V10.0001Z" stroke="#04A3DA" stroke-width="1.25" stroke-miterlimit="10" stroke-linecap="round" stroke-linejoin="round"/>
</svg>
