<svg width="84" height="84" viewBox="0 0 84 84" fill="none" xmlns="http://www.w3.org/2000/svg">
<circle cx="42" cy="42" r="42" fill="#F2F2F2"/>
<circle cx="42" cy="42" r="35" fill="#04A3DA"/>
<path fill-rule="evenodd" clip-rule="evenodd" d="M38.0956 54.1718C38.0956 54.1718 38.1015 57 41.7237 57C45.3459 57 45.3459 54.1718 45.3459 54.1718L45.3364 45.1289H54.8609C54.8609 45.1289 59 45.3804 59 41.6552C59 37.93 54.8609 38.1961 54.8609 38.1961H45.3459V29.3073C45.3459 29.3073 45.3364 26 41.7143 26C38.0921 26 38.0683 29.3073 38.0683 29.3073V38.2505H28.0709C28.0709 38.2505 25 38.5303 25 41.6552C25 44.7801 28.0709 45.1539 28.0709 45.1539H38.0873L38.0968 54.1718H38.0956Z" fill="white"/>
</svg>
