<svg width="177" height="23" viewBox="0 0 177 23" fill="none" xmlns="http://www.w3.org/2000/svg">
<path fill-rule="evenodd" clip-rule="evenodd" d="M133.171 17.0685H124.08V1.60384C124.08 1.07414 123.659 0.645279 123.138 0.645279H119.46C118.94 0.645279 118.519 1.07414 118.519 1.60384V21.4942C118.519 22.0239 118.94 22.4528 119.46 22.4528H133.171C133.692 22.4528 134.112 22.0239 134.112 21.4942V18.027C134.112 17.4973 133.692 17.0685 133.171 17.0685Z" fill="#00A3DA"/>
<path fill-rule="evenodd" clip-rule="evenodd" d="M133.171 17.0685H124.08V1.60384C124.08 1.07414 123.659 0.645279 123.138 0.645279H119.46C118.94 0.645279 118.519 1.07414 118.519 1.60384V21.4942C118.519 22.0239 118.94 22.4528 119.46 22.4528H133.171C133.692 22.4528 134.112 22.0239 134.112 21.4942V18.027C134.112 17.4973 133.692 17.0685 133.171 17.0685Z" fill="black" fill-opacity="0.2"/>
<path fill-rule="evenodd" clip-rule="evenodd" d="M153.976 0.645279H150.325C149.806 0.645279 149.385 1.07414 149.385 1.60384V12.999C149.385 14.6875 148.889 17.5229 145.56 17.5229C142.914 17.5229 141.458 15.9163 141.458 12.999V1.60384C141.458 1.07414 141.036 0.645279 140.517 0.645279H136.866C136.346 0.645279 135.924 1.07414 135.924 1.60384V12.999C135.924 18.9842 139.696 22.8521 145.532 22.8521C151.368 22.8521 154.918 19.0757 154.918 12.999V1.60384C154.918 1.07414 154.496 0.645279 153.976 0.645279Z" fill="#00A3DA"/>
<path fill-rule="evenodd" clip-rule="evenodd" d="M153.976 0.645279H150.325C149.806 0.645279 149.385 1.07414 149.385 1.60384V12.999C149.385 14.6875 148.889 17.5229 145.56 17.5229C142.914 17.5229 141.458 15.9163 141.458 12.999V1.60384C141.458 1.07414 141.036 0.645279 140.517 0.645279H136.866C136.346 0.645279 135.924 1.07414 135.924 1.60384V12.999C135.924 18.9842 139.696 22.8521 145.532 22.8521C151.368 22.8521 154.918 19.0757 154.918 12.999V1.60384C154.918 1.07414 154.496 0.645279 153.976 0.645279Z" fill="black" fill-opacity="0.2"/>
<path fill-rule="evenodd" clip-rule="evenodd" d="M167.643 8.41595C165.146 8.11211 164.126 7.66443 164.126 6.8672C164.126 5.62497 165.727 5.18401 167.227 5.18401C168.973 5.18401 170.54 6.07534 171.047 6.93576C171.3 7.37 171.849 7.52999 172.283 7.29472L175.209 5.75941C175.665 5.52145 175.851 4.95411 175.624 4.48357C174.212 1.55009 171.269 0 167.106 0C162.884 0.03361 158.623 2.13491 158.623 6.75561C158.623 12.6992 164.573 13.4225 167.126 13.7317C170.801 14.135 170.801 15.3181 170.801 15.7053C170.801 17.5848 168.086 17.7299 167.254 17.7299C164.995 17.7299 163.268 16.7754 162.636 15.1769C162.537 14.9255 162.338 14.7292 162.09 14.6351C161.839 14.5437 161.567 14.5585 161.33 14.6822L158.267 16.3022C157.837 16.5307 157.646 17.0577 157.829 17.5162C159.296 21.2052 162.362 23 167.198 23C172.833 23 176.333 20.2063 176.333 15.7053C176.333 9.51163 170.468 8.77221 167.643 8.41595Z" fill="#00A3DA"/>
<path fill-rule="evenodd" clip-rule="evenodd" d="M167.643 8.41595C165.146 8.11211 164.126 7.66443 164.126 6.8672C164.126 5.62497 165.727 5.18401 167.227 5.18401C168.973 5.18401 170.54 6.07534 171.047 6.93576C171.3 7.37 171.849 7.52999 172.283 7.29472L175.209 5.75941C175.665 5.52145 175.851 4.95411 175.624 4.48357C174.212 1.55009 171.269 0 167.106 0C162.884 0.03361 158.623 2.13491 158.623 6.75561C158.623 12.6992 164.573 13.4225 167.126 13.7317C170.801 14.135 170.801 15.3181 170.801 15.7053C170.801 17.5848 168.086 17.7299 167.254 17.7299C164.995 17.7299 163.268 16.7754 162.636 15.1769C162.537 14.9255 162.338 14.7292 162.09 14.6351C161.839 14.5437 161.567 14.5585 161.33 14.6822L158.267 16.3022C157.837 16.5307 157.646 17.0577 157.829 17.5162C159.296 21.2052 162.362 23 167.198 23C172.833 23 176.333 20.2063 176.333 15.7053C176.333 9.51163 170.468 8.77221 167.643 8.41595Z" fill="black" fill-opacity="0.2"/>
<path fill-rule="evenodd" clip-rule="evenodd" d="M107.772 0.645279C106.239 0.645279 104.702 0.653345 103.169 0.660067C101.323 0.666789 99.4811 0.6762 97.6338 0.672167V6.1748H107.772C109.556 6.1748 110.352 7.44526 110.352 8.70496C110.352 9.37447 110.128 9.99558 109.718 10.4486C109.262 10.9515 108.59 11.2176 107.772 11.2176H97.6338V21.5225C97.6338 22.0522 98.0544 22.481 98.5752 22.481H102.254C102.773 22.481 103.194 22.0522 103.194 21.5225V16.6289H107.771C110.252 16.6289 112.35 15.7631 113.832 14.1242C115.145 12.675 115.869 10.7269 115.869 8.64446C115.869 4.67041 113.088 0.645279 107.771 0.645279" fill="#00A3DA"/>
<path fill-rule="evenodd" clip-rule="evenodd" d="M107.772 0.645279C106.239 0.645279 104.702 0.653345 103.169 0.660067C101.323 0.666789 99.4811 0.6762 97.6338 0.672167V6.1748H107.772C109.556 6.1748 110.352 7.44526 110.352 8.70496C110.352 9.37447 110.128 9.99558 109.718 10.4486C109.262 10.9515 108.59 11.2176 107.772 11.2176H97.6338V21.5225C97.6338 22.0522 98.0544 22.481 98.5752 22.481H102.254C102.773 22.481 103.194 22.0522 103.194 21.5225V16.6289H107.771C110.252 16.6289 112.35 15.7631 113.832 14.1242C115.145 12.675 115.869 10.7269 115.869 8.64446C115.869 4.67041 113.088 0.645279 107.771 0.645279" fill="black" fill-opacity="0.2"/>
<path fill-rule="evenodd" clip-rule="evenodd" d="M59.1509 13.8433H63.8396C64.9433 13.8433 66.5492 14.5329 66.5492 15.6111C66.5492 16.9999 64.1179 17.0402 63.8396 17.0402H59.1509V13.8433ZM63.8396 8.62967H59.1509V5.97179H63.8396C65.5208 5.97179 65.9651 6.94379 65.9651 7.45736C65.9651 7.74775 65.9651 8.62967 63.8396 8.62967ZM71.4964 7.37266C71.4964 3.16065 68.6338 0.645279 63.8396 0.645279H54.5875C54.068 0.645279 53.6473 1.07414 53.6473 1.60384V21.4929C53.6473 22.0226 54.068 22.4528 54.5875 22.4528H63.8396C69.1547 22.4528 72.0818 20.0329 72.0818 15.6407C72.0818 14.3837 71.4595 12.3617 69.8812 11.1222C70.9228 10.1744 71.4951 8.87032 71.4951 7.37266H71.4964Z" fill="#2E3138"/>
<path fill-rule="evenodd" clip-rule="evenodd" d="M45.7177 0.645279C45.214 0.645279 44.8066 1.06339 44.8066 1.57829V12.6709C44.8066 14.3151 44.4743 17.0765 41.2478 17.0765C38.6819 17.0765 36.5446 15.5117 36.5446 12.6709V1.57829C36.5446 1.06204 36.1372 0.645279 35.6335 0.645279H32.0932C31.5882 0.645279 31.1808 1.06339 31.1808 1.57829V12.6709C31.1808 18.4976 35.5623 22.2632 41.2228 22.2632H50.1717V1.57829C50.1717 1.06204 49.7643 0.645279 49.2593 0.645279H45.719H45.7177Z" fill="#2E3138"/>
<path fill-rule="evenodd" clip-rule="evenodd" d="M79.6186 0.645279C80.1223 0.645279 80.5297 1.06339 80.5297 1.57829V12.6709C80.5297 14.3151 80.862 17.0765 84.0884 17.0765C86.6543 17.0765 88.7916 15.5117 88.7916 12.6709V1.57829C88.7916 1.06204 89.1991 0.645279 89.7027 0.645279H93.243C93.748 0.645279 94.1555 1.06339 94.1555 1.57829V12.6709C94.1555 18.4976 89.7739 22.2632 84.1135 22.2632H75.1646V1.57829C75.1646 1.06204 75.572 0.645279 76.0757 0.645279H79.6159H79.6186Z" fill="#2E3138"/>
<path fill-rule="evenodd" clip-rule="evenodd" d="M10.0038 5.76343C10.0038 5.76343 9.9497 1.37799 10.0038 0.937029C10.0578 0.496065 10.667 0.323982 10.667 0.323982H20.2119C20.2119 0.323982 27.6155 0.95585 28.1772 6.91423C28.7389 12.874 23.9961 14.6418 23.9961 14.6418L29.0527 20.4093C29.0527 20.4093 29.3968 21.786 28.4 22.1584H23.5662L17.733 15.509H15.5627V21.548C15.5627 21.548 15.3412 22.1584 14.9008 22.1584H10.667C10.2741 22.1584 10.0038 21.5951 10.0038 21.5951V10.2174H20.6786C20.6786 10.2174 22.6288 9.71865 22.6288 7.98572C22.6288 6.25279 20.6786 5.76208 20.6786 5.76208H10.0038V5.76343Z" fill="#2E3138"/>
<path fill-rule="evenodd" clip-rule="evenodd" d="M6.01385 14.0907C6.01385 14.0907 6.01649 15.4768 7.67916 15.4768C9.34184 15.4768 9.34316 14.0907 9.34316 14.0907L9.3392 9.65821H13.7128C13.7128 9.65821 15.6128 9.78189 15.6128 7.9562C15.6128 6.1305 13.7128 6.26091 13.7128 6.26091H9.34316V1.90505C9.34316 1.90505 9.3392 0.285049 7.67521 0.285049C6.01121 0.285049 6.00067 1.90505 6.00067 1.90505V6.2878H1.40952C1.40952 6.2878 0 6.42493 0 7.9562C0 9.48747 1.40952 9.67031 1.40952 9.67031H6.00858L6.01253 14.0907H6.01385Z" fill="#00A3DA"/>
<path fill-rule="evenodd" clip-rule="evenodd" d="M6.01385 14.0907C6.01385 14.0907 6.01649 15.4768 7.67916 15.4768C9.34184 15.4768 9.34316 14.0907 9.34316 14.0907L9.3392 9.65821H13.7128C13.7128 9.65821 15.6128 9.78189 15.6128 7.9562C15.6128 6.1305 13.7128 6.26091 13.7128 6.26091H9.34316V1.90505C9.34316 1.90505 9.3392 0.285049 7.67521 0.285049C6.01121 0.285049 6.00067 1.90505 6.00067 1.90505V6.2878H1.40952C1.40952 6.2878 0 6.42493 0 7.9562C0 9.48747 1.40952 9.67031 1.40952 9.67031H6.00858L6.01253 14.0907H6.01385Z" fill="black" fill-opacity="0.2"/>
</svg>
