<svg width="158" height="22" viewBox="0 0 158 22" fill="none" xmlns="http://www.w3.org/2000/svg">
<path fill-rule="evenodd" clip-rule="evenodd" d="M118.795 15.9673H110.685V2.17215C110.685 1.69964 110.31 1.31708 109.845 1.31708H106.563C106.1 1.31708 105.725 1.69964 105.725 2.17215V19.9153C105.725 20.3878 106.1 20.7704 106.563 20.7704H118.795C119.259 20.7704 119.634 20.3878 119.634 19.9153V16.8224C119.634 16.3499 119.259 15.9673 118.795 15.9673Z" fill="#00A3DA"/>
<path fill-rule="evenodd" clip-rule="evenodd" d="M118.795 15.9673H110.685V2.17215C110.685 1.69964 110.31 1.31708 109.845 1.31708H106.563C106.1 1.31708 105.725 1.69964 105.725 2.17215V19.9153C105.725 20.3878 106.1 20.7704 106.563 20.7704H118.795C119.259 20.7704 119.634 20.3878 119.634 19.9153V16.8224C119.634 16.3499 119.259 15.9673 118.795 15.9673Z" fill="black" fill-opacity="0.2"/>
<path fill-rule="evenodd" clip-rule="evenodd" d="M137.354 1.31708H134.097C133.633 1.31708 133.258 1.69964 133.258 2.17215V12.3371C133.258 13.8434 132.816 16.3727 129.846 16.3727C127.485 16.3727 126.187 14.9395 126.187 12.3371V2.17215C126.187 1.69964 125.811 1.31708 125.347 1.31708H122.09C121.627 1.31708 121.25 1.69964 121.25 2.17215V12.3371C121.25 17.6763 124.616 21.1266 129.821 21.1266C135.027 21.1266 138.194 17.7578 138.194 12.3371V2.17215C138.194 1.69964 137.817 1.31708 137.354 1.31708Z" fill="#00A3DA"/>
<path fill-rule="evenodd" clip-rule="evenodd" d="M137.354 1.31708H134.097C133.633 1.31708 133.258 1.69964 133.258 2.17215V12.3371C133.258 13.8434 132.816 16.3727 129.846 16.3727C127.485 16.3727 126.187 14.9395 126.187 12.3371V2.17215C126.187 1.69964 125.811 1.31708 125.347 1.31708H122.09C121.627 1.31708 121.25 1.69964 121.25 2.17215V12.3371C121.25 17.6763 124.616 21.1266 129.821 21.1266C135.027 21.1266 138.194 17.7578 138.194 12.3371V2.17215C138.194 1.69964 137.817 1.31708 137.354 1.31708Z" fill="black" fill-opacity="0.2"/>
<path fill-rule="evenodd" clip-rule="evenodd" d="M149.545 8.24886C147.317 7.97783 146.408 7.57847 146.408 6.86731C146.408 5.75918 147.836 5.36583 149.175 5.36583C150.732 5.36583 152.129 6.16094 152.582 6.92847C152.808 7.31583 153.297 7.45854 153.684 7.24867L156.294 5.87911C156.701 5.66684 156.867 5.16075 156.665 4.74101C155.405 2.12421 152.78 0.741455 149.066 0.741455C145.3 0.771437 141.499 2.64589 141.499 6.76777C141.499 12.0697 146.807 12.7149 149.084 12.9908C152.362 13.3505 152.362 14.4059 152.362 14.7513C152.362 16.4279 149.94 16.5574 149.198 16.5574C147.183 16.5574 145.642 15.7059 145.079 14.28C144.991 14.0557 144.813 13.8806 144.592 13.7967C144.367 13.7151 144.125 13.7283 143.913 13.8386L141.181 15.2838C140.798 15.4876 140.627 15.9577 140.791 16.3667C142.1 19.6575 144.834 21.2585 149.149 21.2585C154.175 21.2585 157.297 18.7664 157.297 14.7513C157.297 9.22626 152.066 8.56667 149.545 8.24886Z" fill="#00A3DA"/>
<path fill-rule="evenodd" clip-rule="evenodd" d="M149.545 8.24886C147.317 7.97783 146.408 7.57847 146.408 6.86731C146.408 5.75918 147.836 5.36583 149.175 5.36583C150.732 5.36583 152.129 6.16094 152.582 6.92847C152.808 7.31583 153.297 7.45854 153.684 7.24867L156.294 5.87911C156.701 5.66684 156.867 5.16075 156.665 4.74101C155.405 2.12421 152.78 0.741455 149.066 0.741455C145.3 0.771437 141.499 2.64589 141.499 6.76777C141.499 12.0697 146.807 12.7149 149.084 12.9908C152.362 13.3505 152.362 14.4059 152.362 14.7513C152.362 16.4279 149.94 16.5574 149.198 16.5574C147.183 16.5574 145.642 15.7059 145.079 14.28C144.991 14.0557 144.813 13.8806 144.592 13.7967C144.367 13.7151 144.125 13.7283 143.913 13.8386L141.181 15.2838C140.798 15.4876 140.627 15.9577 140.791 16.3667C142.1 19.6575 144.834 21.2585 149.149 21.2585C154.175 21.2585 157.297 18.7664 157.297 14.7513C157.297 9.22626 152.066 8.56667 149.545 8.24886Z" fill="black" fill-opacity="0.2"/>
<path fill-rule="evenodd" clip-rule="evenodd" d="M96.1375 1.31708C94.7696 1.31708 93.3993 1.32427 92.0314 1.33027C90.3848 1.33627 88.7416 1.34466 87.0938 1.34106V6.24966H96.1375C97.7289 6.24966 98.4393 7.38297 98.4393 8.50668C98.4393 9.10391 98.2394 9.65797 97.8736 10.0621C97.4666 10.5107 96.8668 10.7481 96.1375 10.7481H87.0938V19.9405C87.0938 20.413 87.469 20.7956 87.9336 20.7956H91.2151C91.6786 20.7956 92.0538 20.413 92.0538 19.9405V15.5752H96.1363C98.3499 15.5752 100.221 14.8028 101.543 13.3409C102.715 12.0481 103.361 10.3104 103.361 8.45271C103.361 4.90768 100.88 1.31708 96.1363 1.31708" fill="#00A3DA"/>
<path fill-rule="evenodd" clip-rule="evenodd" d="M96.1375 1.31708C94.7696 1.31708 93.3993 1.32427 92.0314 1.33027C90.3848 1.33627 88.7416 1.34466 87.0938 1.34106V6.24966H96.1375C97.7289 6.24966 98.4393 7.38297 98.4393 8.50668C98.4393 9.10391 98.2394 9.65797 97.8736 10.0621C97.4666 10.5107 96.8668 10.7481 96.1375 10.7481H87.0938V19.9405C87.0938 20.413 87.469 20.7956 87.9336 20.7956H91.2151C91.6786 20.7956 92.0538 20.413 92.0538 19.9405V15.5752H96.1363C98.3499 15.5752 100.221 14.8028 101.543 13.3409C102.715 12.0481 103.361 10.3104 103.361 8.45271C103.361 4.90768 100.88 1.31708 96.1363 1.31708" fill="black" fill-opacity="0.2"/>
<path fill-rule="evenodd" clip-rule="evenodd" d="M52.7653 13.0903H56.9478C57.9323 13.0903 59.3649 13.7055 59.3649 14.6673C59.3649 15.9062 57.196 15.9421 56.9478 15.9421H52.7653V13.0903ZM56.9478 8.43952H52.7653V6.06857H56.9478C58.4475 6.06857 58.8439 6.93564 58.8439 7.39376C58.8439 7.6528 58.8439 8.43952 56.9478 8.43952ZM63.778 7.31821C63.778 3.5609 61.2245 1.31708 56.9478 1.31708H48.6945C48.231 1.31708 47.8558 1.69964 47.8558 2.17215V19.9141C47.8558 20.3866 48.231 20.7704 48.6945 20.7704H56.9478C61.6891 20.7704 64.3002 18.6117 64.3002 14.6937C64.3002 13.5724 63.7451 11.7687 62.3372 10.663C63.2664 9.81748 63.7768 8.65419 63.7768 7.31821H63.778Z" fill="#2E3138"/>
<path fill-rule="evenodd" clip-rule="evenodd" d="M40.7823 1.31708C40.333 1.31708 39.9695 1.69005 39.9695 2.14937V12.0445C39.9695 13.5112 39.6731 15.9745 36.795 15.9745C34.5061 15.9745 32.5995 14.5786 32.5995 12.0445V2.14937C32.5995 1.68885 32.236 1.31708 31.7867 1.31708H28.6286C28.1781 1.31708 27.8147 1.69005 27.8147 2.14937V12.0445C27.8147 17.2421 31.7232 20.6013 36.7726 20.6013H44.7554V2.14937C44.7554 1.68885 44.392 1.31708 43.9415 1.31708H40.7834H40.7823Z" fill="#2E3138"/>
<path fill-rule="evenodd" clip-rule="evenodd" d="M71.0234 1.31708C71.4727 1.31708 71.8361 1.69005 71.8361 2.14937V12.0445C71.8361 13.5112 72.1325 15.9745 75.0107 15.9745C77.2995 15.9745 79.2062 14.5786 79.2062 12.0445V2.14937C79.2062 1.68885 79.5696 1.31708 80.0189 1.31708H83.177C83.6275 1.31708 83.9909 1.69005 83.9909 2.14937V12.0445C83.9909 17.2421 80.0824 20.6013 75.033 20.6013H67.0502V2.14937C67.0502 1.68885 67.4136 1.31708 67.8629 1.31708H71.021H71.0234Z" fill="#2E3138"/>
<path fill-rule="evenodd" clip-rule="evenodd" d="M8.92384 5.88269C8.92384 5.88269 8.87561 1.97068 8.92384 1.57732C8.97206 1.18396 9.51546 1.03046 9.51546 1.03046H18.0299C18.0299 1.03046 24.6343 1.59411 25.1353 6.90926C25.6364 12.2256 21.4056 13.8026 21.4056 13.8026L25.9163 18.9475C25.9163 18.9475 26.2233 20.1755 25.3341 20.5077H21.0222L15.8187 14.5762H13.8827V19.9633C13.8827 19.9633 13.6851 20.5077 13.2922 20.5077H9.51546C9.16496 20.5077 8.92384 20.0052 8.92384 20.0052V9.85585H18.4463C18.4463 9.85585 20.1859 9.41093 20.1859 7.86507C20.1859 6.31922 18.4463 5.88149 18.4463 5.88149H8.92384V5.88269Z" fill="#2E3138"/>
<path fill-rule="evenodd" clip-rule="evenodd" d="M5.36463 13.311C5.36463 13.311 5.36698 14.5474 6.85016 14.5474C8.33335 14.5474 8.33452 13.311 8.33452 13.311L8.33099 9.35701H12.2324C12.2324 9.35701 13.9273 9.46735 13.9273 7.83874C13.9273 6.21014 12.2324 6.32647 12.2324 6.32647H8.33452V2.44084C8.33452 2.44084 8.33099 0.995728 6.84664 0.995728C5.36228 0.995728 5.35287 2.44084 5.35287 2.44084V6.35045H1.25735C1.25735 6.35045 0 6.47278 0 7.83874C0 9.20471 1.25735 9.36781 1.25735 9.36781H5.35992L5.36345 13.311H5.36463Z" fill="#00A3DA"/>
<path fill-rule="evenodd" clip-rule="evenodd" d="M5.36463 13.311C5.36463 13.311 5.36698 14.5474 6.85016 14.5474C8.33335 14.5474 8.33452 13.311 8.33452 13.311L8.33099 9.35701H12.2324C12.2324 9.35701 13.9273 9.46735 13.9273 7.83874C13.9273 6.21014 12.2324 6.32647 12.2324 6.32647H8.33452V2.44084C8.33452 2.44084 8.33099 0.995728 6.84664 0.995728C5.36228 0.995728 5.35287 2.44084 5.35287 2.44084V6.35045H1.25735C1.25735 6.35045 0 6.47278 0 7.83874C0 9.20471 1.25735 9.36781 1.25735 9.36781H5.35992L5.36345 13.311H5.36463Z" fill="black" fill-opacity="0.2"/>
</svg>
