<svg width="198" height="26" viewBox="0 0 198 26" fill="none" xmlns="http://www.w3.org/2000/svg">
<g clip-path="url(#clip0_1_24)">
<path fill-rule="evenodd" clip-rule="evenodd" d="M80.2808 8.33408C80.2808 3.5731 77.067 0.729179 71.6842 0.729179H61.2958C60.7119 0.729179 60.24 1.21362 60.24 1.8129V24.2963C60.24 24.8962 60.7125 25.3806 61.2958 25.3806H71.6842C77.6515 25.3806 80.9393 22.6453 80.9393 17.6804C80.9393 16.2603 80.2399 13.9736 78.4682 12.5717C79.6377 11.4999 80.2815 10.0265 80.2815 8.33346L80.2808 8.33408ZM71.6842 9.75416H66.4188V6.75023H71.6842C73.5714 6.75023 74.0715 7.84901 74.0715 8.42947C74.0715 8.75703 74.0715 9.75416 71.6842 9.75416ZM66.4188 15.6484H71.6842C72.9234 15.6484 74.7262 16.4278 74.7262 17.6471C74.7262 19.2178 71.996 19.2623 71.6842 19.2623H66.4188V15.6484Z" fill="white"/>
<path fill-rule="evenodd" clip-rule="evenodd" d="M51.3352 0.729805C50.7697 0.729805 50.3119 1.2017 50.3119 1.78466V14.3238C50.3119 16.1825 49.9395 19.3037 46.3155 19.3037C43.4349 19.3037 41.0342 17.5348 41.0342 14.3238V1.78466C41.0342 1.2017 40.5763 0.729805 40.0102 0.729805H36.0347C35.4686 0.729805 35.0107 1.2017 35.0107 1.78466V14.3238C35.0107 20.9108 39.9307 25.1673 46.2856 25.1673H56.3341V1.78466C56.3341 1.2017 55.8769 0.729805 55.3101 0.729805H51.3346H51.3352Z" fill="white"/>
<path fill-rule="evenodd" clip-rule="evenodd" d="M89.4014 0.729805C89.9669 0.729805 90.4254 1.2017 90.4254 1.78466V14.3238C90.4254 16.1825 90.7977 19.3037 94.4217 19.3037C97.3023 19.3037 99.703 17.5348 99.703 14.3238V1.78466C99.703 1.2017 100.161 0.729805 100.726 0.729805H104.702C105.268 0.729805 105.726 1.2017 105.726 1.78466V14.3238C105.726 20.9108 100.806 25.1673 94.451 25.1673H84.4025V1.78466C84.4025 1.2017 84.8598 0.729805 85.4265 0.729805H89.402H89.4014Z" fill="white"/>
<path fill-rule="evenodd" clip-rule="evenodd" d="M149.535 19.295H139.326V1.81353C139.326 1.21425 138.854 0.729805 138.27 0.729805H134.138C133.555 0.729805 133.083 1.21488 133.083 1.81353V24.2975C133.083 24.8974 133.555 25.3813 134.138 25.3813H149.535C150.119 25.3813 150.591 24.8968 150.591 24.2975V20.3787C150.591 19.7794 150.119 19.2943 149.535 19.2943" fill="#04A3DA"/>
<path fill-rule="evenodd" clip-rule="evenodd" d="M172.897 0.729805H168.796C168.213 0.729805 167.741 1.21488 167.741 1.81353V14.6946C167.741 16.6035 167.184 19.8089 163.447 19.8089C160.475 19.8089 158.84 17.9922 158.84 14.6946V1.81353C158.84 1.21425 158.367 0.729805 157.783 0.729805H153.683C153.1 0.729805 152.627 1.21488 152.627 1.81353V14.6946C152.627 21.4605 156.862 25.8325 163.416 25.8325C169.97 25.8325 173.954 21.5641 173.954 14.6946V1.81353C173.954 1.21425 173.481 0.729805 172.898 0.729805" fill="#04A3DA"/>
<path fill-rule="evenodd" clip-rule="evenodd" d="M188.242 9.51382C185.438 9.17119 184.293 8.66479 184.293 7.76304C184.293 6.35928 186.091 5.85977 187.775 5.85977C189.736 5.85977 191.495 6.86694 192.065 7.8396C192.349 8.32969 192.964 8.51042 193.452 8.24623L196.738 6.50988C197.249 6.24068 197.458 5.59935 197.204 5.06785C195.619 1.75266 192.314 0 187.64 0C182.898 0.0376512 178.113 2.41281 178.113 7.63628C178.113 14.3551 184.796 15.1734 187.661 15.5229C191.788 15.9798 191.788 17.3158 191.788 17.7538C191.788 19.8779 188.739 20.043 187.805 20.043C185.268 20.043 183.329 18.9636 182.62 17.157C182.508 16.8734 182.286 16.6512 182.007 16.5452C181.724 16.4416 181.419 16.4592 181.153 16.5985L177.714 18.4296C177.231 18.6881 177.016 19.283 177.222 19.802C178.871 23.9725 182.313 26.0013 187.744 26.0013C194.069 26.0013 198 22.843 198 17.7544C198 10.7532 191.415 9.91669 188.242 9.51507" fill="#04A3DA"/>
<path fill-rule="evenodd" clip-rule="evenodd" d="M121.014 0.729805C119.292 0.729805 117.568 0.73859 115.846 0.746748C113.774 0.754906 111.704 0.764946 109.631 0.760553V6.98115H121.014C123.016 6.98115 123.912 8.41691 123.912 9.84076C123.912 10.5982 123.66 11.2997 123.2 11.8118C122.687 12.3797 121.932 12.6815 121.014 12.6815H109.631V24.3302C109.631 24.9288 110.103 25.4139 110.687 25.4139H114.818C115.402 25.4139 115.874 24.9288 115.874 24.3302V18.7986H121.013C123.8 18.7986 126.155 17.8203 127.819 15.9672C129.294 14.3288 130.107 12.1274 130.107 9.77361C130.107 5.28057 126.984 0.73106 121.013 0.73106" fill="#04A3DA"/>
<path fill-rule="evenodd" clip-rule="evenodd" d="M11.2339 6.5149C11.2339 6.5149 11.1734 1.55687 11.2339 1.05799C11.2945 0.559744 11.9792 0.364586 11.9792 0.364586H22.6965C22.6965 0.364586 31.0101 1.0787 31.641 7.81449C32.2719 14.5509 26.9459 16.5502 26.9459 16.5502L32.6246 23.0701C32.6246 23.0701 33.011 24.6264 31.8916 25.048H26.4642L19.9143 17.5323H17.4775V24.359C17.4775 24.359 17.2287 25.0487 16.7341 25.0487H11.9792C11.5378 25.0487 11.2339 24.4124 11.2339 24.4124V11.5507H23.2204C23.2204 11.5507 25.4096 10.9872 25.4096 9.02874C25.4096 7.07026 23.2204 6.51553 23.2204 6.51553H11.2339V6.5149Z" fill="white"/>
<path fill-rule="evenodd" clip-rule="evenodd" d="M6.75222 15.9289C6.75222 15.9289 6.75528 17.4959 8.62292 17.4959C10.4906 17.4959 10.4906 15.9289 10.4906 15.9289L10.4857 10.9188H15.3965C15.3965 10.9188 17.5307 11.0581 17.5307 8.99423C17.5307 6.93032 15.3965 7.07779 15.3965 7.07779H10.4906V2.15302C10.4906 2.15302 10.4857 0.320663 8.61803 0.320663C6.75039 0.320663 6.73816 2.15302 6.73816 2.15302V7.10791H1.58336C1.58336 7.10791 0 7.26291 0 8.99423C0 10.7256 1.58336 10.9326 1.58336 10.9326H6.74794L6.75283 15.9289H6.75222Z" fill="#04A3DA"/>
</g>
<defs>
<clipPath id="clip0_1_24">
<rect width="198" height="26" fill="white"/>
</clipPath>
</defs>
</svg>
