<svg width="24" height="24" viewBox="0 0 24 24" fill="none" xmlns="http://www.w3.org/2000/svg">
<path fill-rule="evenodd" clip-rule="evenodd" d="M5.11765 11.4706C5.11765 7.96196 7.96196 5.11765 11.4706 5.11765C14.9792 5.11765 17.8235 7.96196 17.8235 11.4706C17.8235 14.9792 14.9792 17.8235 11.4706 17.8235C7.96196 17.8235 5.11765 14.9792 5.11765 11.4706ZM11.4706 3C6.79241 3 3 6.79241 3 11.4706C3 16.1488 6.79241 19.9412 11.4706 19.9412C13.428 19.9412 15.2304 19.2772 16.6648 18.1622L19.1925 20.6899C19.606 21.1034 20.2764 21.1034 20.6899 20.6899C21.1034 20.2764 21.1034 19.606 20.6899 19.1925L18.1622 16.6648C19.2772 15.2304 19.9412 13.428 19.9412 11.4706C19.9412 6.79241 16.1488 3 11.4706 3Z" fill="#141416"/>
</svg>
