<svg width="24" height="24" viewBox="0 0 24 24" fill="none" xmlns="http://www.w3.org/2000/svg">
<path d="M21.3204 4.61975H2.67965C2.3043 4.61975 2 4.92405 2 5.2994V15.4311C2 15.8064 2.3043 16.1107 2.67965 16.1107H21.3204C21.6957 16.1107 22 15.8064 22 15.4311V5.2994C22 4.92405 21.6957 4.61975 21.3204 4.61975Z" fill="#04A3DA"/>
<path opacity="0.4" d="M15.8834 18.2012H13.576V17.2899H10.4234V18.2012H8.11594C7.79035 18.2012 7.52637 18.4652 7.52637 18.7908C7.52637 19.1164 7.79031 19.3804 8.11594 19.3804H15.8834C16.209 19.3804 16.473 19.1164 16.473 18.7908C16.473 18.4652 16.209 18.2012 15.8834 18.2012Z" fill="#04A3DA"/>
</svg>
