<svg width="20" height="20" viewBox="0 0 20 20" fill="none" xmlns="http://www.w3.org/2000/svg">
<path d="M4.1665 6.5H15.8332" stroke="#FF2222" stroke-width="1.5" stroke-linecap="round" stroke-linejoin="round"/>
<path d="M8.83301 10V13.5" stroke="#FF2222" stroke-width="1.25" stroke-linecap="round" stroke-linejoin="round"/>
<path d="M11.1665 10V13.5" stroke="#FF2222" stroke-width="1.25" stroke-linecap="round" stroke-linejoin="round"/>
<path d="M5.33301 6.5L5.99967 15.5C5.99967 15.8978 6.14015 16.2794 6.3902 16.5607C6.64025 16.842 6.97939 17 7.33301 17H12.6663C13.02 17 13.3591 16.842 13.6091 16.5607C13.8592 16.2794 13.9997 15.8978 13.9997 15.5L14.6663 6.5" stroke="#FF2222" stroke-width="1.25" stroke-linecap="round" stroke-linejoin="round"/>
<path d="M7.6665 6.5V3.875C7.6665 3.64294 7.74845 3.42038 7.89431 3.25628C8.04017 3.09219 8.238 3 8.44428 3H11.5554C11.7617 3 11.9595 3.09219 12.1054 3.25628C12.2512 3.42038 12.3332 3.64294 12.3332 3.875V6.5" stroke="#FF2222" stroke-width="1.25" stroke-linecap="round" stroke-linejoin="round"/>
</svg>
