<svg width="20" height="20" viewBox="0 0 20 20" fill="none" xmlns="http://www.w3.org/2000/svg">
<path d="M9.89428 9.70725C11.0048 9.70725 11.9664 9.3275 12.752 8.57823C13.5377 7.82909 13.936 6.91246 13.936 5.85351C13.936 4.79491 13.5377 3.87817 12.7519 3.12878C11.9661 2.37976 11.0046 2 9.89428 2C8.78366 2 7.82233 2.37976 7.03664 3.1289C6.25095 3.87805 5.85254 4.79479 5.85254 5.85351C5.85254 6.91246 6.25095 7.82921 7.03677 8.57835C7.82258 9.32737 8.78405 9.70725 9.89428 9.70725Z" fill="#697A8D"/>
<path d="M16.9661 14.3032C16.9434 13.9914 16.8976 13.6514 16.8301 13.2922C16.762 12.9304 16.6743 12.5884 16.5693 12.2758C16.4609 11.9526 16.3134 11.6335 16.1311 11.3278C15.9419 11.0104 15.7196 10.734 15.4702 10.5066C15.2095 10.2687 14.8902 10.0774 14.5209 9.93787C14.153 9.79907 13.7452 9.72876 13.3091 9.72876C13.1378 9.72876 12.9721 9.79578 12.6522 9.99438C12.4553 10.1168 12.2249 10.2584 11.9679 10.415C11.7481 10.5486 11.4503 10.6737 11.0825 10.787C10.7236 10.8977 10.3592 10.9539 9.99962 10.9539C9.64 10.9539 9.27577 10.8977 8.91653 10.787C8.5491 10.6738 8.25131 10.5487 8.03175 10.4152C7.77711 10.26 7.54667 10.1184 7.34682 9.99426C7.02727 9.79565 6.86148 9.72864 6.69018 9.72864C6.25387 9.72864 5.84624 9.79907 5.47843 9.93799C5.10946 10.0773 4.79004 10.2686 4.529 10.5067C4.27973 10.7343 4.05736 11.0105 3.86839 11.3278C3.68621 11.6335 3.53873 11.9525 3.43016 12.2759C3.32531 12.5885 3.23761 12.9304 3.1695 13.2922C3.10204 13.6509 3.0562 13.9911 3.03354 14.3036C3.01127 14.6097 3 14.9275 3 15.2484C3 16.0836 3.27845 16.7597 3.82755 17.2584C4.36986 17.7505 5.08744 18.0001 5.96006 18.0001H14.0399C14.9126 18.0001 15.6299 17.7506 16.1723 17.2584C16.7216 16.7601 17 16.0838 17 15.2483C16.9999 14.9259 16.9885 14.6079 16.9661 14.3032Z" fill="#697A8D"/>
</svg>
