<svg width="18" height="18" viewBox="0 0 18 18" fill="none" xmlns="http://www.w3.org/2000/svg">
<path d="M8.83057 4.58984C6.37047 4.58984 4.13953 5.90697 2.49333 8.04634C2.359 8.22161 2.359 8.46648 2.49333 8.64176C4.13953 10.7837 6.37047 12.1008 8.83057 12.1008C11.2907 12.1008 13.5216 10.7837 15.1678 8.64433C15.3021 8.46906 15.3021 8.22419 15.1678 8.04892C13.5216 5.90697 11.2907 4.58984 8.83057 4.58984ZM9.00704 10.9899C7.374 11.0904 6.02543 9.7733 6.12815 8.17264C6.21244 6.85293 7.30552 5.78325 8.65409 5.70077C10.2871 5.60024 11.6357 6.91737 11.533 8.51803C11.4461 9.83516 10.353 10.9048 9.00704 10.9899ZM8.92539 9.76815C8.04565 9.82227 7.31869 9.11345 7.37664 8.25255C7.42141 7.54114 8.01141 6.96635 8.73838 6.91995C9.61811 6.86582 10.3451 7.57465 10.2871 8.43555C10.2397 9.14953 9.64972 9.72433 8.92539 9.76815Z" fill="#697A8D"/>
</svg>
