<svg width="22" height="22" viewBox="0 0 22 22" fill="none" xmlns="http://www.w3.org/2000/svg">
<path fill-rule="evenodd" clip-rule="evenodd" d="M14.1831 12.0744C13.0832 12.2251 12.2251 13.0832 12.0745 14.1831C11.9881 14.8139 11.9167 15.4992 11.9167 16.0417C11.9167 16.5842 11.9881 17.2694 12.0745 17.9003C12.2251 19.0002 13.0832 19.8583 14.1831 20.0089C14.814 20.0953 15.4992 20.1667 16.0417 20.1667C16.5843 20.1667 17.2695 20.0953 17.9003 20.0089C19.0003 19.8583 19.8584 19.0002 20.009 17.9003C20.0954 17.2694 20.1667 16.5842 20.1667 16.0417C20.1667 15.4992 20.0954 14.8139 20.009 14.1831C19.8584 13.0832 19.0003 12.2251 17.9003 12.0744C17.2695 11.988 16.5843 11.9167 16.0417 11.9167C15.4992 11.9167 14.814 11.988 14.1831 12.0744Z" fill="#697A8D"/>
<path fill-rule="evenodd" clip-rule="evenodd" d="M4.09965 12.0744C2.99974 12.2251 2.14164 13.0832 1.991 14.1831C1.9046 14.8139 1.83325 15.4992 1.83325 16.0417C1.83325 16.5842 1.9046 17.2694 1.991 17.9003C2.14164 19.0002 2.99974 19.8583 4.09965 20.0089C4.73051 20.0953 5.41573 20.1667 5.95825 20.1667C6.50077 20.1667 7.18599 20.0953 7.81685 20.0089C8.91676 19.8583 9.77486 19.0002 9.9255 17.9003C10.0119 17.2694 10.0833 16.5842 10.0833 16.0417C10.0833 15.4992 10.0119 14.8139 9.9255 14.1831C9.77486 13.0832 8.91676 12.2251 7.81685 12.0744C7.18599 11.988 6.50077 11.9167 5.95825 11.9167C5.41573 11.9167 4.73051 11.988 4.09965 12.0744Z" fill="#697A8D"/>
<path fill-rule="evenodd" clip-rule="evenodd" d="M14.1831 1.99106C13.0832 2.1417 12.2251 2.9998 12.0745 4.09971C11.9881 4.73057 11.9167 5.41579 11.9167 5.95831C11.9167 6.50083 11.9881 7.18605 12.0745 7.81691C12.2251 8.91682 13.0832 9.77493 14.1831 9.92556C14.814 10.012 15.4992 10.0833 16.0417 10.0833C16.5843 10.0833 17.2695 10.012 17.9003 9.92556C19.0003 9.77493 19.8584 8.91682 20.009 7.81691C20.0954 7.18605 20.1667 6.50083 20.1667 5.95831C20.1667 5.41579 20.0954 4.73057 20.009 4.09971C19.8584 2.9998 19.0003 2.1417 17.9003 1.99106C17.2695 1.90466 16.5843 1.83331 16.0417 1.83331C15.4992 1.83331 14.814 1.90466 14.1831 1.99106Z" fill="#697A8D"/>
<path fill-rule="evenodd" clip-rule="evenodd" d="M4.09965 1.99106C2.99974 2.1417 2.14164 2.9998 1.991 4.09971C1.9046 4.73057 1.83325 5.41579 1.83325 5.95831C1.83325 6.50083 1.9046 7.18605 1.991 7.81691C2.14164 8.91682 2.99974 9.77493 4.09965 9.92556C4.73051 10.012 5.41573 10.0833 5.95825 10.0833C6.50077 10.0833 7.18599 10.012 7.81685 9.92556C8.91676 9.77493 9.77486 8.91682 9.9255 7.81691C10.0119 7.18605 10.0833 6.50083 10.0833 5.95831C10.0833 5.41579 10.0119 4.73057 9.9255 4.09971C9.77486 2.9998 8.91676 2.1417 7.81685 1.99106C7.18599 1.90466 6.50077 1.83331 5.95825 1.83331C5.41573 1.83331 4.73051 1.90466 4.09965 1.99106Z" fill="#697A8D"/>
</svg>
